<svg xmlns="http://www.w3.org/2000/svg" viewBox="0 0 83.062 80.347" x="0px" y="0px" alt="crab">
	<path d="M65.151-.108a1.433,1.433,0,0,1,.153.051,18.2,18.2,0,0,1,8.309,3.262c6.448,4.836,9.717,10.545,10.5,15.7a13.265,13.265,0,0,1-1.835,9.43,11.638,11.638,0,0,1-.612,6.474,10.657,10.657,0,0,1-5.709,5.3,7.883,7.883,0,0,1-1.274,3.721,9.753,9.753,0,0,1-5.3,3.619c.465,1.051.949,2.3,1.427,3.517A17.037,17.037,0,0,0,77.589,50c1.956-.771,3.116-1.841,3.466-3.16a1.63,1.63,0,0,1,1.529-1.274,1.662,1.662,0,0,1,.357.051,1.614,1.614,0,0,1,1.083.739,1.638,1.638,0,0,1,.191,1.3c-.695,2.619-2.906,4.4-5.454,5.4a19.014,19.014,0,0,1-6.678,1.223c.1.255.159.452.255.714a7.684,7.684,0,0,1-.153,5.709,25.089,25.089,0,0,0,6.168,1.223,9.016,9.016,0,0,0,5.1-1.427,1.644,1.644,0,0,1,1.631,2.855A12.691,12.691,0,0,1,78.3,65.19a29.785,29.785,0,0,1-7.952-1.631c-.07.083-.127.172-.2.255a28.781,28.781,0,0,1-4.129,3.466,21.085,21.085,0,0,1,7.9,4.231c2.459,2.179,3.823,4.5,3.823,6.729a1.631,1.631,0,1,1-3.262,0,7.507,7.507,0,0,0-2.7-4.282,19.321,19.321,0,0,0-9.277-4.18c-.3.21-.567.4-.867.612-2.02,1.421-7.785,5.288-9.811,6.893a11.85,11.85,0,0,1-7.442,2.956,11.85,11.85,0,0,1-7.442-2.956c-2.026-1.606-7.791-5.473-9.811-6.893-.3-.21-.567-.4-.867-.612a19.321,19.321,0,0,0-9.277,4.18,7.507,7.507,0,0,0-2.7,4.282,1.631,1.631,0,1,1-3.262,0c0-2.23,1.364-4.549,3.823-6.729a21.085,21.085,0,0,1,7.9-4.231,28.782,28.782,0,0,1-4.129-3.466c-.076-.083-.134-.172-.2-.255a29.784,29.784,0,0,1-7.952,1.631A12.691,12.691,0,0,1,3.68,63.355,1.644,1.644,0,0,1,5.311,60.5a9.016,9.016,0,0,0,5.1,1.427A25.089,25.089,0,0,0,16.576,60.7,7.684,7.684,0,0,1,16.423,55c.1-.261.159-.459.255-.714A19.014,19.014,0,0,1,10,53.058c-2.549-1.007-4.76-2.784-5.454-5.4a1.632,1.632,0,1,1,3.16-.816c.35,1.319,1.51,2.389,3.466,3.16a17.037,17.037,0,0,0,6.78.969c.452-1.147.886-2.154,1.325-3.16a10,10,0,0,1-5.2-3.364A8.415,8.415,0,0,1,12.4,40.62c-3.543-1.574-5.626-4.1-6.219-6.729A13.393,13.393,0,0,1,6.738,26.6a13.452,13.452,0,0,1,.612-9.634c2.02-4.785,6.512-9.513,13.661-12.54a15.231,15.231,0,0,1,5.454-1.172c1.542-.051,2.855.1,3.16.1a1.63,1.63,0,0,1,1.121,2.8,50,50,0,0,0-6.423,7.748,18.731,18.731,0,0,0-1.478,2.956,37.421,37.421,0,0,0,3.772-2.4A41.667,41.667,0,0,0,33.958,8a1.634,1.634,0,0,1,2.855.561c.854,3.052-.032,6.9-1.682,10.653s-4.154,7.372-7.391,9.379a31.005,31.005,0,0,1-6.321,2.956,10.8,10.8,0,0,1-.051,4.18,6.121,6.121,0,0,1,3.262,3.16c.357-.37.739-.695,1.121-1.019,3.657-3.1,12.226-3.67,18.629-3.67s14.972.573,18.629,3.67c.115.1.242.2.357.306a7.4,7.4,0,0,1,3.67-2.855,9.811,9.811,0,0,1,.255-4.231A23.33,23.33,0,0,1,60.054,26.5C54.778,21.149,53.013,11.323,57.1,3.563a1.655,1.655,0,0,1,2.753-.2A70.37,70.37,0,0,0,64.9,9.425a19.085,19.085,0,0,0,2.447,1.937c-.3-.873-.6-1.727-.968-2.651-1.115-2.759-2.383-5.4-2.855-6.423A1.652,1.652,0,0,1,65-.108h.153ZM67.9,3.97c.548,1.2.918,1.943,1.529,3.466.58,1.446,1.134,2.963,1.529,4.333a10.005,10.005,0,0,1,.561,3.772,1.662,1.662,0,0,1-.714,1.2,1.624,1.624,0,0,1-1.376.229c-2.5-.733-4.728-2.956-6.932-5.3C61.124,10.2,60.232,9,59.187,7.691c-1.822,5.945-.319,12.928,3.211,16.515a22.322,22.322,0,0,0,6.779,4.078c3.058,1.153,6.244,1.459,8.615-.051a6.024,6.024,0,0,0,1.223-1.07,1.631,1.631,0,0,1,.612-.816,9.848,9.848,0,0,0,1.223-6.932c-.631-4.161-3.352-9.15-9.226-13.559A12.894,12.894,0,0,0,67.9,3.97ZM26.159,6.621a11.423,11.423,0,0,0-3.874.816C15.8,10.176,12,14.337,10.357,18.243s-1.109,7.442.663,9.328c1.854,1.982,4.664,2.1,7.7,1.376a27.246,27.246,0,0,0,7.289-3.109c2.332-1.446,4.658-4.639,6.117-7.952a19.593,19.593,0,0,0,1.478-5.3,45.917,45.917,0,0,1-5.1,4.537,39.969,39.969,0,0,1-4.69,2.956,10.174,10.174,0,0,1-4.18,1.376,1.63,1.63,0,0,1-1.682-1.886c.319-2.16,1.746-4.639,3.67-7.493a56.516,56.516,0,0,1,4.537-5.454ZM9.287,30.375a8.276,8.276,0,0,0,.051,2.8c.44,1.95,1.6,3.7,5.046,4.893l1.019.357.051,1.07a5.709,5.709,0,0,0,1.172,2.956A6.824,6.824,0,0,0,20.654,44.8a32.4,32.4,0,0,1,1.733-3.007,1.639,1.639,0,0,1-.51-.968c-.293-1.587-2.8-2.651-2.8-2.651l-1.427-.459L18,36.288a17.756,17.756,0,0,0,.2-3.925C15.168,32.866,11.829,32.579,9.287,30.375Zm69.882.867a11.757,11.757,0,0,1-8.716.867,13.469,13.469,0,0,0-.051,3.874l.306,1.478-1.478.408s-2.835,1.051-3.568,2.855v.051a28.084,28.084,0,0,1,2.294,3.67,6.732,6.732,0,0,0,4.027-2.5A5.584,5.584,0,0,0,72.9,39.04l.051-1.07,1.019-.357a7.258,7.258,0,0,0,4.69-4.078,7.59,7.59,0,0,0,.51-2.294ZM44.381,37.46c-6.225,0-13.691.535-16.489,2.906s-5.244,7.009-8.411,15.751c-.809,2.236-.2,3.594,1.529,5.454s4.664,3.855,7.952,6.168h.051c2.351,1.657,8.186,5.536,9.964,6.944s3.352,2.294,5.4,2.294,3.626-.886,5.4-2.294S57.4,69.4,59.748,67.738H59.8c3.288-2.313,6.219-4.307,7.952-6.168s2.338-3.218,1.529-5.454c-3.167-8.742-5.613-13.381-8.411-15.751S50.606,37.46,44.381,37.46Z" transform="translate(-2.85 0.108)"></path>
</svg>