<?xml version="1.0" encoding="UTF-8"?>
<svg width="1200pt" height="1200pt" version="1.1" viewBox="0 0 1200 1200" xmlns="http://www.w3.org/2000/svg">
 <defs>
  <clipPath id="a">
   <path d="m222.14 321h755.71v558h-755.71z"/>
  </clipPath>
 </defs>
 <g clip-path="url(#a)">
  <path d="m224.18 330.74c-1.3398 2.5898-2.0391 5.4688-2.0391 8.3867 0.003906 3.6445 1.1133 7.1992 3.1758 10.203l359.57 521.82c3.3594 4.8711 8.8945 7.7812 14.812 7.7812 5.918 0 11.457-2.9102 14.812-7.7812l360.17-521.82c2.5039-3.6562 3.5742-8.1016 3.0156-12.496-0.5625-4.3945-2.7227-8.4297-6.0625-11.336-3.3438-2.9062-7.6367-4.4844-12.066-4.4336h-719.44c-3.2891 0-6.5156 0.90234-9.3281 2.6094-2.8086 1.707-5.0977 4.1484-6.6211 7.0664z"/>
 </g>
</svg>
