<?xml version="1.0" encoding="UTF-8"?>
<svg width="1200pt" height="1200pt" version="1.1" viewBox="0 0 1200 1200" xmlns="http://www.w3.org/2000/svg" alt="Edit/Reply To Post">
 <g>
  <path d="m646.22 672-124.22-88.164 301.11-424.24 124.22 88.164z"/>
  <path d="m490.45 759.9 19.699-138.55 104.62 74.273z"/>
  <path d="m1000.2 173.3-31.148 43.852-124.2-88.152 31.102-43.824c24.301-34.25 71.949-42.324 106.18-18.051 34.273 24.301 42.348 71.926 18.074 106.18z"/>
  <path d="m1012.3 313.75c-17.75 10.699-23.477 33.75-12.801 51.477 60.75 100.98 80.949 220.07 56.977 335.45-52.449 251.65-299.75 413.73-551.52 361.38-251.68-52.375-413.8-299.82-361.4-551.48 52.426-251.72 299.65-413.88 551.53-361.43 20.273 4.1992 40.125-8.8008 44.324-29.051 4.2266-20.273-8.8008-40.125-29.074-44.375-292.07-60.773-579.35 127.38-640.18 419.55-60.852 292.15 127.38 579.35 419.55 640.18 37.051 7.7266 74.023 11.426 110.5 11.426 250.88 0 476.57-175.82 529.7-430.95 27.852-133.9 4.3984-272.23-66.148-389.4-10.652-17.727-33.676-23.426-51.453-12.777z"/>
 </g>
</svg>
