<svg height='100px' width='100px'  fill="#FFF" xmlns="http://www.w3.org/2000/svg" xmlns:xlink="http://www.w3.org/1999/xlink" version="1.1" x="0px" y="0px" viewBox="0 0 100 100" enable-background="new 0 0 100 100" xml:space="preserve"><g><path d="M29.027,28.26c3.17,0,5.75-2.579,5.75-5.75c0-3.223-2.699-5.853-5.907-5.748c-0.807-3.886-4.237-6.764-8.335-6.764   c-3.714,0-6.949,2.395-8.084,5.837c-0.005,0-0.011,0-0.017,0c-3.425,0-6.211,2.787-6.211,6.211c0,3.425,2.787,6.212,6.211,6.212   H29.027z M8.723,22.048c0-2.046,1.665-3.711,3.711-3.711c0.23,0,0.47,0.025,0.714,0.073l1.243,0.249l0.23-1.247   c0.527-2.847,3.014-4.913,5.913-4.913c3.225,0,5.864,2.522,6.008,5.742l0.07,1.582l1.522-0.436   c0.293-0.084,0.594-0.126,0.892-0.126c1.792,0,3.25,1.458,3.25,3.25s-1.458,3.25-3.25,3.25H12.434   C10.388,25.76,8.723,24.095,8.723,22.048z"></path><rect x="48.183" y="58.083" width="13.108" height="2.5"></rect><rect x="68.5" y="78.25" width="23" height="2.5"></rect><rect x="8.5" y="88.502" width="32.925" height="2.5"></rect><rect x="75.968" y="88.502" width="15.532" height="2.5"></rect><rect x="45.715" y="19.895" transform="matrix(0.7071 0.7071 -0.7071 0.7071 32.5244 -25.4349)" width="2.5" height="13.296"></rect><rect x="40.589" y="30.607" transform="matrix(0.7071 -0.7071 0.7071 0.7071 -8.6906 42.732)" width="13.296" height="2.5"></rect><rect x="56.243" y="29.296" transform="matrix(0.7071 0.7071 -0.7071 0.7071 42.2558 -30.126)" width="2.5" height="13.296"></rect><rect x="56.515" y="34.61" transform="matrix(-0.7071 -0.7071 0.7071 -0.7071 69.4376 111.2776)" width="2.5" height="13.296"></rect><path d="M81,11.917c-3.262,0-5.916,2.654-5.916,5.917S77.738,23.75,81,23.75s5.916-2.654,5.916-5.917S84.262,11.917,81,11.917z    M81,21.25c-1.884,0-3.416-1.533-3.416-3.417s1.532-3.417,3.416-3.417s3.416,1.533,3.416,3.417S82.884,21.25,81,21.25z"></path><rect x="79.75" y="6.667" width="2.5" height="4.583"></rect><rect x="79.75" y="24.586" width="2.5" height="4.583"></rect><rect x="87.668" y="16.667" width="4.583" height="2.5"></rect><rect x="69.749" y="16.667" width="4.583" height="2.5"></rect><rect x="86.086" y="21.961" transform="matrix(-0.7071 0.7071 -0.7071 -0.7071 166.24 -20.354)" width="2.5" height="4.583"></rect><rect x="72.374" y="10.332" transform="matrix(0.7071 0.7072 -0.7072 0.7071 30.063 -49.4073)" width="4.583" height="2.5"></rect><rect x="73.415" y="21.961" transform="matrix(-0.7071 -0.7071 0.7071 -0.7071 110.3121 94.1977)" width="2.5" height="4.583"></rect><rect x="86.086" y="9.291" transform="matrix(0.7071 0.7071 -0.7071 0.7071 33.7698 -58.3635)" width="2.5" height="4.582"></rect><path d="M78.758,38.897l-9.657-3.286l-2.557-14.334L52.834,5.769L35.95,15.897l2.147,9.158l-3.819,6.659L19.25,36.724V49.25H8.5   v2.5h10.75v6.333H8.5v2.5h10.75v3.193l15.028,5.009l2.339,4.08H20.5v2.5h17.551l0.045,0.079l-1.087,4.639H14.667v2.5h21.756   l-0.473,2.02l16.884,10.129l13.71-15.508l1.809-10.141H91.5v-2.5H68.799l0.302-1.694l9.657-3.286l0.566-1.853H91.5v-2.5H80.089   l1.683-5.5H91.5v-2.5h-9.575L78.758,38.897z M77.476,57.25h-4.809v2.5h3.774l-9.542,3.248l-0.64,3.585h-5.824v2.5h5.378   l-1.607,9.01L52.338,91.519L38.8,83.397l1.882-8.032h11.028v-2.5H39.499l-3.527-6.15L21.75,61.974v-1.391H36v-2.5H21.75V51.75   h57.407L77.476,57.25z M21.75,49.25V38.526l14.222-4.741l4.784-8.341L38.8,17.103l13.538-8.121l11.868,13.426l2.693,15.096   l9.843,3.349l2.568,8.398H21.75z"></path></g></svg>