<?xml version="1.0" encoding="UTF-8" standalone="no"?>
<svg
   xmlns:dc="http://purl.org/dc/elements/1.1/"
   xmlns:cc="http://creativecommons.org/ns#"
   xmlns:rdf="http://www.w3.org/1999/02/22-rdf-syntax-ns#"
   xmlns:svg="http://www.w3.org/2000/svg"
   xmlns="http://www.w3.org/2000/svg"
   xmlns:sodipodi="http://sodipodi.sourceforge.net/DTD/sodipodi-0.dtd"
   xmlns:inkscape="http://www.inkscape.org/namespaces/inkscape"
   xml:space="preserve"
   version="1.1"
   style="shape-rendering:geometricPrecision;text-rendering:geometricPrecision;image-rendering:optimizeQuality;"
   viewBox="0 0 719 570"
   x="0px"
   y="0px"
   fill-rule="evenodd"
   clip-rule="evenodd"
   id="svg10"
   sodipodi:docname="logo2.svg"
   inkscape:version="0.92.5 (2060ec1f9f, 2020-04-08)"><metadata
     id="metadata14"><rdf:RDF><cc:Work
         rdf:about=""><dc:format>image/svg+xml</dc:format><dc:type
           rdf:resource="http://purl.org/dc/dcmitype/StillImage" /><dc:title /></cc:Work></rdf:RDF></metadata><sodipodi:namedview
     pagecolor="#ffffff"
     bordercolor="#666666"
     borderopacity="1"
     objecttolerance="10"
     gridtolerance="10"
     guidetolerance="10"
     inkscape:pageopacity="0"
     inkscape:pageshadow="2"
     inkscape:window-width="3312"
     inkscape:window-height="2032"
     id="namedview12"
     showgrid="false"
     inkscape:zoom="0.82807018"
     inkscape:cx="-235.87968"
     inkscape:cy="654.4906"
     inkscape:window-x="144"
     inkscape:window-y="54"
     inkscape:window-maximized="1"
     inkscape:current-layer="svg10" /><defs
     id="defs4"><style
       type="text/css"
       id="style2">
   
    .fil0 {fill:black}
   
  </style><style
       id="style1116"
       type="text/css">
   
    .fil0 {fill:black}
   
  </style><clipPath
       clipPathUnits="userSpaceOnUse"
       id="clipPath1137"><rect
         style="opacity:1;fill:#ffffff;fill-opacity:1;stroke:none;stroke-width:2.98557472;stroke-miterlimit:4;stroke-dasharray:none"
         id="rect1139"
         width="358.96198"
         height="255.62447"
         x="-9.0500336"
         y="-5.2955408" /></clipPath></defs><g
     id="g1230"
     transform="matrix(0.53511042,0,0,0.53511042,646.68129,489.35471)"><g
       style="fill:#ffffff"
       transform="matrix(1,0,0,-1,-863.45339,-344.41619)"
       id="g8"><path
         id="path6"
         d="m 319,0 c 27,0 54,0 81,0 v 2 c 0,21 -5,42 -3,69 0,8 -1,6 2,14 2,4 2,7 1,12 -1,7 1,16 4,23 1,2 2,6 4,9 5,9 31,9 41,9 49,0 6,32 69,50 35,7 29,37 64,42 5,1 51,5 50,6 -1,2 -35,1 -40,3 -6,3 -2,8 1,11 14,15 33,20 52,16 15,-4 25,-10 39,0 5,3 7,3 12,5 3,1 3,2 2,2 1,-1 -1,-1 -2,-1 -7,0 -10,-2 -15,-5 -7,-4 -13,-4 -20,-2 h -1 c -15,4 -21,9 -38,7 -17,-2 -30,-11 -43,-21 -6,-6 -13,-13 -20,-19 -5,-4 -9,-8 -14,-13 -4,-3 -8,-7 -12,-11 -13,-11 -23,-7 -38,-10 -2,-1 -3,0 -3,2 -1,5 6,10 10,12 4,2 7,2 11,4 8,3 16,10 20,17 1,1 5,8 5,8 0,2 -2,2 -3,1 -2,-2 -5,-8 -7,-11 -5,-5 -12,-10 -20,-12 -6,-1 -10,-1 -16,-5 -8,-5 -12,-11 -15,-19 -3,-7 -4,-7 -9,-12 -14,-12 -31,-19 -50,-15 -12,2 1,9 5,13 6,6 5,8 5,15 -1,7 7,10 13,12 9,4 19,8 28,11 33,12 62,39 83,55 13,10 18,13 34,12 10,0 15,1 24,2 6,1 11,0 15,5 6,7 17,16 25,19 6,2 11,2 17,2 8,-1 15,-1 23,-2 8,-1 17,-1 24,-1 8,0 6,2 0,3 -13,2 -24,4 -37,7 -20,4 -27,1 -45,-9 -6,-3 -11,-6 -16,-9 -22,-13 -34,6 -63,-8 1,6 4,20 8,25 5,5 13,6 19,5 10,-1 18,-5 29,0 4,2 8,7 13,10 9,7 16,6 27,7 1,0 4,1 4,2 -1,1 -5,1 -6,1 -12,-1 -18,0 -29,-8 -7,-6 -11,-11 -21,-9 -6,1 -12,4 -17,7 -8,4 -4,6 1,10 5,4 11,9 17,11 3,0 4,1 7,2 5,2 8,3 12,6 4,3 4,3 8,5 4,2 8,4 12,5 4,2 9,4 13,6 5,3 10,5 16,8 7,4 13,4 20,5 7,1 12,4 18,7 3,3 7,6 10,9 2,2 1,4 -3,1 -4,-3 -5,-5 -10,-8 -8,-4 -10,-6 -20,-6 -7,-1 -12,-1 -19,-4 -6,-3 -13,-4 -20,-6 -6,-3 -13,-5 -20,-7 -5,-2 -6,-3 -9,-7 -3,-3 -7,-3 -10,1 -3,3 -3,6 -2,10 2,3 4,6 7,8 3,2 10,4 14,5 8,3 15,8 21,14 3,4 4,5 6,10 0,0 2,3 2,4 0,2 -2,0 -3,-1 -1,-2 -2,-5 -4,-7 -6,-7 -12,-12 -21,-15 -5,-2 -10,-3 -16,-5 -6,-2 -11,-6 -14,-12 -5,-7 -2,-11 -10,-18 -6,-4 -8,-5 -14,-8 -2,-1 -4,-2 -5,-3 -50,-36 -21,-82 -108,-106 -12,1 -23,1 -35,2 25,46 87,20 100,85 5,25 13,56 33,72 l 1,1 c 6,5 10,7 17,9 4,1 7,3 11,4 4,2 9,4 13,6 11,5 14,8 16,20 3,13 12,16 22,23 3,3 11,13 13,18 1,3 -10,-6 -11,-7 -6,-5 -9,-7 -16,-11 -11,-7 -13,-8 -16,-22 -3,-10 -9,-13 -19,-16 -6,-2 -11,-4 -18,-4 -12,-1 -18,-5 -27,-13 -2,-1 -3,-2 -5,0 -2,4 -1,9 1,12 2,3 7,7 9,10 6,7 7,10 9,19 2,9 4,11 9,18 0,1 3,6 1,6 -1,1 -4,-4 -4,-5 -5,-8 -7,-9 -10,-19 -2,-8 -3,-12 -9,-17 -7,-6 -13,-8 -16,-18 -2,-8 0,-15 -3,-24 -1,-6 -4,-10 -6,-16 -5,-12 -8,-24 -11,-36 -2,4 -4,7 -8,11 -2,3 -5,6 -7,10 -12,21 3,28 12,43 13,20 -5,34 -8,53 0,2 0,3 0,5 1,6 3,14 6,18 8,12 12,17 10,32 0,-9 -1,-13 -6,-20 -8,-13 -10,-8 -14,-25 -4,-12 0,-22 4,-33 6,-15 2,-23 -8,-35 -34,-40 37,-69 -3,-96 -11,-6 -21,-10 -33,-13 -3,0 -4,2 -5,4 -7,13 2,18 8,28 6,8 8,13 9,23 1,2 2,14 1,15 0,2 -1,0 -2,-1 -1,-3 -1,-9 -2,-13 -1,-6 -3,-11 -6,-16 -3,-6 -5,-8 -10,-13 -7,-7 -9,-10 -10,-20 -1,-4 -2,-11 -6,-13 -9,-4 -14,-7 -21,-13 -5,22 -6,45 8,65 7,10 17,19 26,28 4,5 8,9 11,14 10,13 10,19 13,35 0,3 0,9 2,11 1,2 4,5 6,8 1,3 3,7 4,10 0,1 1,6 -1,3 -1,-1 -4,-9 -6,-12 -3,-4 -7,-6 -8,-11 -1,-6 -2,-12 -4,-19 -1,-6 -3,-11 -8,-16 -2,-2 -9,-8 -9,-2 -1,5 -1,7 -3,12 0,0 0,1 0,2 l -1,2 c -3,12 -6,36 -2,48 3,9 6,18 11,27 9,16 22,22 23,43 1,15 4,14 13,23 3,3 15,19 13,22 -2,-1 -11,-14 -13,-16 -5,-6 -11,-9 -14,-14 -9,-12 4,-19 -16,-42 -1,-1 -2,-2 -3,-3 -7,-8 -11,-14 -17,-23 -3,-5 -6,-1 -7,3 -5,21 5,21 10,36 3,10 -1,22 -3,31 0,1 -3,17 -4,12 -2,-7 6,-26 5,-36 -2,-15 -15,-17 -17,-36 -1,-12 -2,-20 1,-33 4,-17 8,-38 7,-56 -3,-18 -23,-28 -36,-53 -2,5 -5,10 -6,15 -2,8 -3,14 -1,21 2,12 6,10 12,17 10,11 9,20 4,33 -1,2 -2,3 -3,5 -9,18 -15,25 -7,46 1,2 2,5 4,7 5,12 5,22 5,34 1,12 7,19 6,33 -1,11 -3,-5 -4,-7 -2,-9 -6,-17 -7,-25 -2,-18 -1,-24 -9,-41 -2,-4 -6,-11 -7,-14 0,-4 5,-17 6,-21 3,-10 12,-18 10,-28 -3,-13 -10,-5 -15,2 -6,9 -2,11 -3,21 -1,14 -7,5 -4,-23 1,-8 4,-15 3,-20 -4,-16 -9,-27 -6,-45 2,-16 2,-63 -5,-75 -8,12 -8,59 -5,75 2,18 -3,29 -7,45 -1,5 2,12 3,20 3,28 -2,37 -3,23 -1,-10 3,-12 -4,-21 -4,-7 -12,-15 -14,-2 -2,10 7,18 10,28 1,4 5,17 5,21 -1,3 -5,10 -7,14 -8,17 -6,23 -8,41 -1,8 -6,16 -8,25 0,2 -2,18 -3,7 -1,-14 5,-21 5,-33 0,-12 1,-22 6,-34 1,-2 2,-5 3,-7 8,-21 2,-28 -7,-46 -1,-2 -1,-3 -2,-5 -6,-13 -7,-22 3,-33 6,-7 10,-5 13,-17 2,-7 1,-13 -1,-21 -2,-5 -4,-10 -7,-15 -13,25 -33,35 -35,53 -2,18 3,39 7,56 3,13 1,21 0,33 -1,19 -15,21 -16,36 -1,10 6,29 5,36 -1,5 -4,-11 -5,-12 -2,-9 -6,-21 -3,-31 6,-15 15,-15 10,-36 -1,-4 -3,-8 -7,-3 -6,9 -9,15 -17,23 -1,1 -1,2 -2,3 -21,23 -7,30 -16,42 -4,5 -10,8 -14,14 -3,2 -12,15 -14,16 -2,-3 11,-19 13,-22 9,-9 13,-8 13,-23 1,-21 14,-27 24,-43 4,-9 8,-18 10,-27 4,-12 2,-36 -2,-48 v -2 c -1,-1 -1,-2 -1,-2 -1,-5 -1,-7 -2,-12 -1,-6 -8,0 -10,2 -5,5 -6,10 -8,16 -2,7 -2,13 -4,19 -1,5 -5,7 -7,11 -2,3 -5,11 -7,12 -2,3 -1,-2 -1,-3 1,-3 3,-7 5,-10 2,-3 4,-6 6,-8 1,-2 2,-8 2,-11 2,-16 2,-22 12,-35 4,-5 8,-9 12,-14 8,-9 18,-18 25,-28 14,-20 13,-43 8,-65 -6,6 -12,9 -20,13 -5,2 -6,9 -6,13 -1,10 -4,13 -11,20 -5,5 -6,7 -10,13 -3,5 -5,10 -6,16 0,4 -1,10 -2,13 0,1 -1,3 -2,1 -1,-1 1,-13 1,-15 2,-10 4,-15 9,-23 6,-10 15,-15 9,-28 -2,-2 -2,-4 -5,-4 -13,3 -22,7 -33,13 -40,27 30,56 -4,96 -9,12 -14,20 -8,35 5,11 8,21 5,33 -5,17 -7,12 -15,25 -4,7 -5,11 -6,20 -2,-15 3,-20 10,-32 4,-4 5,-12 6,-18 0,-2 0,-3 0,-5 -2,-19 -20,-33 -8,-53 9,-15 24,-22 12,-43 -2,-4 -4,-7 -7,-10 -3,-4 -6,-7 -7,-11 -3,12 -6,24 -11,36 -3,6 -5,10 -7,16 -2,9 0,16 -3,24 -3,10 -8,12 -15,18 -6,5 -8,9 -10,17 -2,10 -4,11 -9,19 -1,1 -3,6 -5,5 -1,0 1,-5 2,-6 4,-7 7,-9 9,-18 1,-9 2,-12 8,-19 3,-3 7,-7 9,-10 3,-3 4,-8 1,-12 -1,-2 -3,-1 -4,0 -10,8 -15,12 -28,13 -6,0 -12,2 -18,4 -9,3 -16,6 -18,16 -4,14 -6,15 -17,22 -6,4 -10,6 -15,11 -1,1 -12,10 -11,7 1,-5 9,-15 13,-18 9,-7 18,-10 21,-23 3,-12 5,-15 16,-20 5,-2 9,-4 14,-6 3,-1 7,-3 10,-4 7,-2 11,-4 17,-9 l 1,-1 c 20,-16 28,-47 33,-72 13,-65 76,-39 100,-85 -11,-1 -23,-1 -34,-2 -87,24 -58,70 -108,106 -2,1 -4,2 -5,3 -6,3 -9,4 -14,8 -8,7 -6,11 -10,18 -4,6 -9,10 -15,12 -5,2 -11,3 -16,5 -9,3 -15,8 -20,15 -2,2 -3,5 -5,7 -1,1 -3,3 -3,1 0,-1 2,-4 2,-4 2,-5 3,-6 6,-10 6,-6 14,-11 22,-14 3,-1 10,-3 13,-5 3,-2 6,-5 7,-8 1,-4 1,-7 -2,-10 -3,-4 -6,-4 -9,-1 -4,4 -4,5 -9,7 -7,2 -14,4 -21,7 -6,2 -13,3 -20,6 -6,3 -12,3 -19,4 -9,0 -12,2 -20,6 -4,3 -6,5 -10,8 -4,3 -5,1 -3,-1 3,-3 7,-6 11,-9 5,-3 11,-6 18,-7 7,-1 13,-1 20,-5 5,-3 10,-5 16,-8 4,-2 8,-4 12,-6 4,-1 8,-3 12,-5 5,-2 5,-2 9,-5 3,-3 7,-4 11,-6 3,-1 5,-2 8,-2 5,-2 12,-7 16,-11 6,-4 9,-6 1,-10 -5,-3 -11,-6 -16,-7 -10,-2 -15,3 -22,9 -10,8 -16,7 -29,8 -1,0 -5,0 -5,-1 -1,-1 3,-2 4,-2 11,-1 17,0 27,-7 4,-3 8,-8 13,-10 10,-5 18,-1 28,0 7,1 14,0 19,-5 5,-5 8,-19 9,-25 -29,14 -42,-5 -64,8 -5,3 -10,6 -15,9 -18,10 -25,13 -46,9 -12,-3 -24,-5 -37,-7 -6,-1 -8,-3 0,-3 8,0 17,0 24,1 8,1 15,1 23,2 6,0 11,0 17,-2 8,-3 20,-12 25,-19 5,-5 10,-4 16,-5 9,-1 14,-2 23,-2 17,1 22,-2 35,-12 20,-16 49,-43 82,-55 10,-3 19,-7 29,-11 5,-2 14,-5 13,-12 -1,-7 -1,-9 4,-15 5,-4 17,-11 5,-13 -18,-4 -36,3 -49,15 -5,5 -7,5 -10,12 -3,8 -7,14 -14,19 -7,4 -10,4 -17,5 -7,2 -14,7 -19,12 -3,3 -6,9 -8,11 -1,1 -3,1 -2,-1 0,0 4,-7 4,-8 5,-7 13,-14 20,-17 4,-2 8,-2 11,-4 5,-2 11,-7 11,-12 0,-2 -2,-3 -4,-2 -15,3 -25,-1 -38,10 -4,4 -8,8 -12,11 -4,5 -9,9 -14,13 -7,6 -13,13 -20,19 -12,10 -26,19 -42,21 -17,2 -24,-3 -39,-7 h -1 c -7,-2 -13,-2 -19,2 -5,3 -9,5 -15,5 -1,0 -3,0 -3,1 0,0 -1,-1 2,-2 6,-2 7,-2 12,-5 14,-10 24,-4 39,0 19,4 39,-1 52,-16 3,-3 7,-8 2,-11 -5,-2 -39,-1 -40,-3 -1,-1 45,-5 49,-6 36,-5 29,-35 64,-42 64,-18 20,-50 70,-50 10,0 35,0 41,-9 1,-3 3,-7 4,-9 2,-7 4,-16 3,-23 -1,-5 0,-8 1,-12 3,-8 2,-6 3,-14 1,-27 -4,-48 -4,-69 z"
         class="fil0"
         inkscape:connector-curvature="0"
         style="fill:#ffffff" /></g><g
       clip-path="url(#clipPath1137)"
       transform="matrix(2.0041149,0,0,-2.0041149,-820.36076,156.97149)"
       id="g1133"
       style="clip-rule:evenodd;fill:#ffffff;fill-rule:evenodd;image-rendering:optimizeQuality;shape-rendering:geometricPrecision;text-rendering:geometricPrecision"><g
         style="fill:#ffffff"
         id="g1122"><path
           style="fill:#ffffff"
           inkscape:connector-curvature="0"
           class="fil0"
           d="m 178.6,199.84 c -3.26,6.15 -4.4,13.09 -4.74,19.97 -0.09,1.81 -0.86,2.69 -1.67,4.2 -0.35,0.65 -0.7,1.33 -1.05,1.98 -0.54,0.99 -1.1,1.45 -1.41,2.65 -0.22,0.85 -0.44,1.46 -0.56,2.34 -0.07,0.57 -0.19,1.08 -0.24,1.67 -0.07,0.77 -0.06,1.51 -0.15,2.28 -0.06,0.57 -0.08,1.09 -0.12,1.66 -0.04,0.48 -0.17,1.03 -0.25,1.52 -0.13,0.84 -0.37,1.74 -0.55,2.58 -0.11,0.5 -0.25,0.94 -0.35,1.46 -0.14,0.67 -0.25,1.26 -0.43,1.93 -0.37,1.35 -0.35,3.31 -0.39,4.74 0,0.16 -0.03,0.31 0.04,0.45 0.19,-0.02 0.17,-0.35 0.18,-0.49 0.14,-1.79 -0.01,-3.11 0.52,-4.91 0.24,-0.83 0.35,-1.71 0.6,-2.55 0.15,-0.51 0.27,-1.08 0.41,-1.61 0.22,-0.86 0.38,-1.73 0.56,-2.59 0.11,-0.54 0.13,-1.3 0.2,-1.87 0.06,-0.5 0.11,-0.87 0.15,-1.37 0.07,-0.94 0.15,-1.54 0.36,-2.46 0.12,-0.54 0.18,-0.94 0.37,-1.49 0.55,-1.54 0.52,-1.64 1.61,-2.89 0.36,-0.41 1.28,-1.57 1.79,-1.65 0.41,-0.07 0.34,0.63 0.35,0.91 0.15,4.72 0.65,9.44 1.37,14.11 1.59,6.91 2.63,9.63 3.01,11.41 l 2.41,2.85 c 2.74,3.29 0.67,4.35 4.23,5.83 1.21,0.5 2.43,0.96 3.64,1.43 1.83,0.7 2.51,0.69 3.31,1.93 2.7,-0.31 6.46,-0.91 8.82,-1.98 4.03,-1.82 8.49,-2.75 13.35,-0.02 4.87,2.73 6.06,7.59 10.79,7.59 2.2,-0.02 4.59,1.8 6.8,1.3 2.94,-0.65 5.9,-1.29 8.86,-1.46 0.98,-0.05 1.97,-0.04 2.96,0.04 9.75,4.26 20.14,2.26 30.13,1.06 -7.59,1.2 -16.78,3.89 -24.37,2.7 1.2,1.6 2,4.5 4,5.69 -3.59,0.4 -4.39,-3.59 -5.99,-5.59 -0.8,-0.8 -1.6,-1.2 -2.31,-1.22 -1.05,-0.12 -2.21,-0.06 -3.13,-0.14 -1.1,0 -2.19,0.07 -2.57,0.33 -0.38,0.26 0.09,1.17 0.76,2.17 0.67,1.01 1.52,2.11 1.88,2.77 0.17,1.69 1.19,4.04 1.47,5.78 0.19,2.04 -0.35,3.02 -0.43,2.46 -0.07,-0.57 -0.37,-2.07 -0.69,-3.52 -0.32,-1.44 -0.67,-2.82 -0.84,-3.13 -0.35,-0.62 -0.83,-1.53 -1.56,-2.16 -0.73,-0.63 -2.43,-2.44 -2.85,-2.78 -0.42,-0.34 -1.53,-0.91 -1.53,-0.91 -0.78,0.19 -6.71,1.62 -7.05,1.83 -0.44,0.26 0.15,0.86 0.36,1.11 0.49,0.57 1.13,1.19 1.67,1.73 0.46,0.47 0.96,0.91 1.43,1.39 0.73,0.73 1.48,1.42 2.2,2.17 0.57,0.61 1.24,1.26 1.87,1.81 0.66,0.59 1.35,0.84 2.02,1.34 0.45,0.33 0.39,0.62 -0.09,0.36 -0.52,-0.28 -1.15,-0.62 -1.65,-0.93 -0.59,-0.37 -1.48,-1.22 -2.03,-1.72 -0.76,-0.69 -1.46,-1.33 -2.25,-1.99 -0.59,-0.49 -1.07,-0.92 -1.69,-1.38 -1.32,-0.98 -1.85,-1.58 -3.52,-2.05 -0.69,-0.19 -1.18,-0.33 -1.89,-0.47 -0.3,-0.06 -0.62,-0.13 -0.91,-0.24 -0.2,-0.07 -0.28,-0.04 -0.31,0.21 -0.06,0.53 0.24,1.08 0.61,1.43 0.84,0.79 2.07,1.05 2.65,2.14 -3.2,0.4 -4.4,-2.8 -6.43,-4.35 -0.59,-0.57 -1.86,-1.8 -3.17,-3.02 -1.3,-1.22 -2.64,-2.44 -3.37,-3.01 -1.46,-1.14 -3.48,-2.5 -5.56,-2.5 -2.09,0 -6.05,1.7 -6.05,1.7 l -1.79,0.65 c 1.74,0.45 2.02,1.09 3.6,2.8 2.43,2.64 4.19,0.36 6.99,1.2 0.85,0.28 2.17,1.59 3,2 0.83,0.41 2.2,2.46 3,3 4.37,4.65 6.19,7.94 12.58,8.74 1.2,0.2 2.3,0.62 3.33,1.2 3.09,1.74 5.56,4.89 8.26,7.59 -2.1,-0.4 -2.65,-1.17 -4.59,-2.5 -0.97,-0.66 -2.79,-3.13 -3.83,-3.47 -1.52,-0.62 -2.57,-0.61 -4.15,-0.44 -0.83,0.09 -1.77,-0.35 -2.49,-0.73 -0.68,-0.36 -1,-0.7 -1.59,-1.13 -0.22,-0.15 -0.79,-0.53 -0.98,-0.15 -0.2,0.39 0.68,1.32 0.93,1.62 0.41,0.5 1,1.04 1.46,1.52 0.53,0.56 0.89,0.93 1.5,1.42 0.43,0.34 0.85,0.79 1.28,1.17 0.61,0.54 1.19,1.04 1.76,1.62 0.38,0.38 0.68,0.66 1.04,1.08 1.16,1.34 2.02,2 2.63,3.78 0.21,0.61 0.27,1.26 0.47,1.89 0.23,0.75 0.48,1.5 0.87,2.19 0.34,0.6 -0.21,-1.17 0.1,-0.31 0.06,0.18 0.24,0.76 -0.09,0.78 -0.3,0.02 -0.7,-0.97 -0.81,-1.2 -0.3,-0.67 -0.59,-1.59 -0.76,-2.31 -0.43,-1.8 -1.3,-2.61 -2.61,-3.8 -0.45,-0.41 -0.8,-0.74 -1.29,-1.12 -1.16,-0.89 -2.38,-1.67 -3.54,-2.58 -4.18,-3.27 -7.73,-7.2 -11.71,-10.67 -0.75,-0.66 -1.52,-1.3 -2.33,-1.89 -1.07,-0.79 -0.08,-0.51 -1.32,-1.05 -1.23,-1.06 -3.62,-1.76 -4.8,-1.8 -1.17,-0.04 -3.27,-0.41 -4.35,-1.12 -0.84,-0.56 -3.44,-1.94 -4.04,-2.27 -0.47,-0.26 -3.97,-1 -5.22,-1.63 -0.19,0.54 3.27,2.31 3.56,2.62 0.65,0.69 1.46,1.33 2.16,1.91 1.07,0.87 2.14,1.72 3.23,2.57 0.93,0.74 1.85,1.48 2.77,2.26 0.78,0.96 1.98,1.76 2.78,2.56 2.93,4 4.61,8.7 7.19,12.81 0.5,0.75 4.47,3.19 5.59,3.91 0.6,0.38 1.19,0.64 1.79,1.07 0.52,0.37 1.01,0.66 1.52,1.05 0.57,0.44 1.17,0.76 1.78,1.12 0.5,0.3 1,0.73 1.44,1.11 0.74,0.61 1.37,1.21 2,1.93 0.54,0.61 1.12,1.19 1.69,1.78 0.19,0.2 1,1.17 0.97,1.39 -0.03,0.33 -0.46,-0.04 -0.56,-0.13 -0.3,-0.3 -0.53,-0.63 -0.85,-0.93 -0.67,-0.64 -1.3,-1.27 -1.96,-1.93 -0.65,-0.66 -2.29,-1.95 -3.1,-2.34 -0.72,-0.34 -1.37,-0.61 -2.06,-1.02 -0.45,-0.27 -1.01,-0.53 -1.49,-0.76 -0.54,-0.26 -1.37,-0.48 -1.97,-0.69 -2.39,-1.6 -5.59,-2.4 -7.59,-4.79 -0.6,-0.74 -1.12,-1.5 -1.59,-2.28 -2.37,-3.93 -3.55,-8.33 -7.27,-11.42 -0.87,-0.74 -1.76,-1.45 -2.64,-2.16 -1.77,-1.41 -3.57,-2.76 -5.39,-4.04 -0.94,-0.65 -1.89,-1.29 -2.87,-1.87 -0.57,-0.3 -1.17,-0.55 -1.72,-0.91 -1.9,-1.24 -2.73,-2.18 -4.89,-2.87 l -0.16,-0.05 c -1.99,-0.67 -2.51,-2.58 -4.08,-3.59 -0.15,-0.1 -0.11,0.04 -0.07,0.16 0.11,0.36 0.27,0.65 0.38,1.05 0.06,0.22 0.45,1.52 0.36,1.65 -0.21,-0.04 -0.99,-1.21 -1.25,-1.48 -0.39,-0.41 -0.93,-0.79 -1.36,-1.19 -0.76,-0.7 -1.51,-1.56 -2.11,-2.41 -0.51,-0.73 -1.1,-1.69 -1.52,-2.48 -0.46,-0.85 -0.89,-2.28 -1.01,-3.24 -0.07,-0.6 -0.19,-1.17 -0.26,-1.78 -0.05,-0.48 -0.23,-1.09 -0.35,-1.56 0.12,0.6 0.28,1.04 0.33,1.68 0.05,0.56 0.16,1.08 0.21,1.63 0.12,1.28 0.59,2.79 1.2,3.92 0.44,0.81 0.81,1.59 1.3,2.38 0.69,1.12 1.35,2.21 2.38,3.07 0.82,0.69 1.32,1.57 1.84,2.5 0.19,0.32 0.36,0.64 0.55,0.96 0.71,1.21 1.49,2.3 2.77,2.72 1.66,0.61 2.48,1.52 3.22,2.53 0.74,1 1.41,2.08 2.76,3.04 2.46,2.06 5.26,4.06 7.63,6.25 0.94,0.96 1.72,2.02 2.4,3.11 0.57,0.92 1.06,1.87 1.52,2.84 0.46,0.97 0.88,1.95 1.31,2.93 1.07,2.21 2.41,4.81 3.91,6.74 0.26,0.33 0.9,0.81 1.24,1.14 0.41,0.39 0.79,0.83 1.19,1.24 0.43,0.44 0.75,0.85 1.24,1.24 0.69,0.54 1.36,1.13 2.05,1.69 0.44,0.37 0.83,0.75 1.26,1.13 0.56,0.5 1.09,0.92 1.61,1.47 0.19,0.2 0.48,0.5 0.67,0.66 -0.1,-0.14 -0.55,-0.57 -0.7,-0.74 0,0 -0.88,-0.92 -0.64,-0.69 0.6,0.57 1.15,1.19 1.75,1.78 0.12,0.12 0.9,0.84 0.51,0.97 -0.29,0.1 -1.27,-0.83 -1.51,-1.05 -0.45,-0.41 -0.83,-0.78 -1.32,-1.17 -0.16,-0.13 -1.4,-1.06 -1.39,-1.13 0.01,-0.08 -1.89,-1.47 -2.09,-1.6 -0.35,-0.24 -0.78,-0.53 -1.11,-0.78 -0.44,-0.33 -0.95,-0.85 -1.39,-1.24 -0.74,-0.66 -0.94,-0.93 -1.86,-1.4 -0.66,-0.33 -0.87,-0.5 -1.43,-0.99 -2.4,-2.08 -4.36,-4.65 -6.3,-7.15 -0.56,-0.94 -1.1,-1.91 -1.65,-2.85 -2.23,-3.77 -4.71,-7.14 -8.44,-7.14 -3.46,-0.26 -2.84,4.09 -1.69,8.44 0.29,1.09 0.61,2.17 0.93,3.19 0.33,1.01 0.72,1.93 1.07,2.69 -1.02,-1.15 -2.31,-2.33 -2.72,-3.52 -0.33,-0.93 -0.6,-1.88 -0.83,-2.82 -1.15,-4.74 -1.37,-9.57 -4.34,-13.59 -0.89,-1.32 -1.93,-2.54 -3.19,-3.61 -0.44,-0.39 -0.57,-0.57 -0.64,-1.15 -0.07,-0.67 -0.47,-0.45 -0.6,0.14 -0.05,0.24 -0.08,0.56 -0.08,0.81 0,0 -0.08,-1.6 -0.17,-1.03 -0.1,0.59 0.03,1.66 0.17,2.25 0.19,0.77 0.42,1.57 0.63,2.34 0.2,0.77 0.48,1.66 0.78,2.39 0.2,0.5 0.37,1 0.56,1.49 0.14,0.35 0.3,0.69 0.43,1.06 0.15,0.39 0.26,0.67 0.39,1.08 0.2,0.7 0.38,1.03 0.67,1.68 0.04,0.1 0.44,0.91 0.12,0.86 -0.16,-0.02 -0.54,-0.87 -0.63,-1.04 -0.27,-0.53 -0.42,-0.91 -0.6,-1.49 -0.24,-0.76 -0.67,-1.59 -0.98,-2.34 -0.31,-0.75 -0.65,-1.41 -0.92,-2.17 -0.21,-0.59 -0.43,-1.13 -0.63,-1.74 -0.31,-0.95 -0.75,-1.82 -1.01,-2.81 -0.18,-0.65 -0.34,-1.32 -0.52,-1.98 -0.27,-0.98 -0.58,-1.22 -1.22,-1.94 -0.31,-0.35 0,-0.14 -0.17,-0.41 -0.81,-1.22 -2.24,-2.5 -3.4,-3.41 -0.57,-0.45 -0.88,-0.75 -1.37,-1.26 -0.77,-0.8 -1.52,-1.6 -2.15,-2.52 -0.48,-0.7 -0.83,-1.35 -1.23,-2.09 -0.32,-0.58 0.43,1.05 0.43,1.05 0.55,1.14 1.08,2.08 1.79,3.13 0.44,0.64 0.85,1.28 1.3,1.92 0.22,0.32 0.53,0.75 0.62,1.13 0.65,2.74 1.69,5.53 2.84,8.1 0.4,0.89 0.81,1.76 1.24,2.63 0.9,1.87 1.55,3.85 2.07,5.87 0.27,1.02 0.5,2.04 0.73,3.07 1.52,5.61 -1.68,13.59 8.71,16.39 1.42,0.38 2,0.9 1.6,1.6 -1,0.1 -2.07,0.12 -3.16,0.04 -1.08,-0.09 -2.17,-0.29 -3.2,-0.63 -1.02,-0.3 -2.02,-0.76 -2.87,-1.38 -0.85,-0.63 -1.56,-1.42 -1.95,-2.42 -0.28,-0.66 -0.33,-1.21 -1.18,-0.74 -0.65,0.36 -2.73,2.42 -3.17,3.08 -0.59,0.9 -1.19,2.41 -1.36,3.46 -0.11,0.76 -0.13,1.52 -0.25,2.26 -0.02,0.15 -0.11,0.71 -0.35,0.63 -0.17,-0.06 -0.07,-0.74 -0.06,-0.91 0.1,-1.48 0.06,-2.33 0.54,-3.78 0.43,-1.28 0.69,-1.97 1.52,-3.05 0.61,-0.79 1.04,-1.36 1.53,-2.24 0.55,-1.01 1,-1.83 0.87,-3.02 -0.22,-2.01 -0.51,-3.97 -0.94,-5.95 -1,-4.62 -2.04,-9.07 -4.8,-13.01 -0.61,-0.98 -1.25,-1.89 -1.95,-2.69 0,1.4 0,2.9 -0.19,4.4 -0.21,1.59 -0.21,3.19 -1.41,4.39 -0.02,-1.78 -0.95,-3.24 -1.77,-4.76 -0.37,-0.69 -0.68,-0.84 -0.91,-1.72 -0.26,-0.98 -0.2,-1.68 0.03,-2.65 0.48,-1.95 0.36,-3.39 -0.46,-5.23 -0.23,-0.52 -0.58,-1.06 -0.85,-1.59 -0.29,-0.57 -0.45,-0.91 -0.69,-1.52 -0.49,-1.28 -0.72,-2.6 -1.14,-3.9 -0.19,-0.59 -0.32,-1.13 -0.54,-1.73 -0.22,-0.59 -0.4,-1.22 -0.62,-1.83 -0.28,-0.77 -0.42,-1.67 -0.65,-2.47 0.28,0.91 0.41,1.75 0.75,2.67 0.23,0.63 0.43,1.27 0.66,1.9 0.2,0.55 0.35,1.15 0.54,1.71 0.29,0.86 0.48,1.78 0.77,2.66 0.17,0.5 0.34,1.02 0.57,1.5 0.14,0.3 -0.18,-0.42 -0.18,-0.43 -0.43,-1.09 -0.68,-2.07 -0.98,-3.19 -0.15,-0.56 -0.35,-1.11 -0.52,-1.67 -0.16,-0.54 -0.38,-1.11 -0.56,-1.65 -0.22,-0.65 -0.44,-1.22 -0.61,-1.88 -0.16,-0.63 -0.31,-1.22 -0.48,-1.85 -0.38,-1.33 -0.41,-3.33 -0.44,-4.74 -0.03,-1.25 -0.06,-2.51 -0.06,-3.76 0,-1.01 0.22,-2.1 0.28,-3.12 0.06,-0.93 0.22,-1.85 0.24,-2.78 0,-0.13 0.01,-0.19 -0.02,-0.31 -0.15,0.03 -0.11,0.09 -0.13,0.27 -0.08,0.69 -0.11,1.35 -0.21,2.04 -0.08,0.65 -0.09,1.28 -0.19,1.95 -0.12,0.84 -0.19,1.59 -0.18,2.44 0,2.08 -0.03,4.35 0.13,6.41 0.07,0.82 0.18,1.31 0.39,2.1 0.24,0.88 0.36,1.66 0.67,2.54 0.22,0.63 0.42,1.28 0.63,1.92 0.17,0.53 0.3,1.08 0.47,1.62 0.28,0.87 0.44,1.83 0.71,2.73 0.34,1.14 0.62,1.86 1.16,2.93 0.37,0.72 0.61,1.11 0.83,1.91 0.46,1.65 0.33,2.74 -0.25,4.32 -0.33,0.87 -0.38,1.41 -0.52,2.31 -0.17,1.17 -0.46,1.23 -1.02,2.2 -0.72,1.25 -1.19,2.54 -1.51,3.94 -0.19,0.84 -0.33,1.7 -0.42,2.58 -0.02,1.43 -0.08,1.59 0.71,2.81 0.83,1.29 2.1,2.44 3.13,3.59 0.57,0.65 1.27,1.89 1.57,2.7 0.17,0.47 0.35,0.91 0.51,1.39 0.32,0.94 0.75,1.87 1.1,2.81 0.15,0.41 0.43,0.96 0.64,1.35 0.22,0.43 0.41,0.72 0.61,1.19 0.08,0.19 0.42,0.93 0.39,1.07 -0.06,0.29 -0.33,-0.1 -0.39,-0.2 -0.3,-0.54 -0.5,-1.07 -0.83,-1.62 -0.22,-0.35 -0.46,-0.82 -0.66,-1.19 -0.19,-0.35 -0.35,-0.8 -0.52,-1.17 -0.37,-0.8 -0.7,-1.59 -1.03,-2.41 -0.69,-1.69 -1.42,-2.87 -2.96,-3.91 -0.31,-0.21 -2.06,-1.48 -2.22,-0.64 -0.05,0.26 -0.02,1.48 -0.03,1.84 -0.03,2.91 -0.18,5.87 -0.84,8.71 -0.24,1.02 -0.57,3.91 -0.9,4.89 -1.01,2.07 -1.6,3.5 -2.8,3.7 1.2,-2.4 0.8,-5.19 1.52,-7.65 0.16,-1.22 0.25,-2.44 0.28,-3.66 0.1,-3.69 -0.29,-7.07 -0.75,-10.71 -0.07,-0.56 -0.03,-0.93 -0.16,-1.52 -0.1,-0.47 -0.17,-0.8 -0.23,-1.28 -0.22,-1.58 -0.45,-3.16 -0.65,-4.74 -0.05,-1.13 -0.06,-2.26 0,-3.4 0.06,-1.13 0.18,-2.26 0.38,-3.39 -0.95,0.8 -1.84,1.64 -2.69,2.52 -0.85,0.88 -1.65,1.79 -2.43,2.74 -0.76,1.09 -1.56,2.16 -2.37,3.21 -0.71,0.92 -0.94,1.06 -0.91,2.28 0.02,0.92 0.3,1.83 0.52,2.72 0.37,1.47 0.81,2.6 1.56,3.93 0.35,0.63 0.6,1.34 0.72,2.04 0.24,1.44 0.24,3.4 0.25,4.89 0,0.47 -0.07,1.11 -0.11,1.6 -0.06,0.62 -0.15,1.19 -0.19,1.83 -0.06,1 -0.07,1.76 0.16,2.75 0.18,0.79 0.6,1.48 0.69,2.31 0.03,0.27 -0.13,0.33 -0.23,0.01 -0.16,-0.55 -0.25,-0.86 -0.47,-1.41 -0.39,-0.94 -0.53,-1.98 -0.52,-2.99 0.02,-1.25 0.2,-2.43 0.25,-3.66 0.03,-0.68 -0.04,-1.69 -0.08,-2.39 -0.07,-1.19 -0.16,-2.8 -0.68,-3.86 -0.21,-0.43 -0.32,-0.61 -0.59,-1.01 -0.76,-1.15 -1.28,-2.2 -1.89,-3.42 -0.2,-0.39 -1.13,-2.06 -1.7,-1.7 -0.34,0.22 -1.91,2.22 -2.24,2.67 -0.65,0.89 -0.66,1.01 -0.67,2.09 -0.01,0.65 0.23,2.29 0.37,2.94 0.15,0.69 0.35,1.31 0.47,2 0.09,0.5 0.21,1 0.3,1.51 0.11,0.55 0.31,0.99 0.4,1.59 0.1,0.68 0.22,1.28 0.27,1.97 0.05,0.56 0.15,1.08 0.19,1.65 0.1,1.43 0.1,3.04 0.08,4.48 0,0.11 0.03,0.66 -0.19,0.55 -0.21,-0.11 -0.2,-1.42 -0.2,-1.7 -0.04,-1.5 -0.07,-2.95 -0.35,-4.43 -0.11,-0.56 -0.15,-1.07 -0.28,-1.64 -0.16,-0.67 -0.22,-1.1 -0.49,-1.74 -0.18,-0.44 -0.3,-0.89 -0.45,-1.34 -0.2,-0.59 -0.32,-1.01 -0.59,-1.59 -0.17,-0.37 -0.83,-2.01 -1.27,-2 -0.32,0.01 -0.73,1.13 -0.85,1.42 -2.5,6.01 -2.71,12.5 -0.98,18.75 -1.8,-0.2 -2.12,-2.06 -2.6,-3.3 -0.47,-1.24 -0.5,-3.33 -0.8,-4.59 -1.15,-4.96 -1,-10.09 1.28,-14.68 0.42,-1.22 0.93,-2.41 1.54,-3.57 0.6,-1.16 1.3,-2.3 2.09,-3.39 0.63,-1.15 1.26,-2.29 1.86,-3.44 0.6,-1.15 1.19,-2.3 1.72,-3.45 0.39,-0.95 0.75,-1.91 1.07,-2.88 0.41,-1.43 0.73,-2.91 1.32,-4.37 0.53,-1.16 0.87,-1.3 0.9,-2.72 0.02,-0.83 -0.07,-1.6 -0.01,-2.45 0.09,-1.31 0.15,-2.38 0.53,-3.65 0.34,-1.15 0.56,-2.23 0.99,-3.36 0.43,-1.12 0.34,-1.91 0.59,-3.02 0.19,-0.81 0.2,-1.33 0.26,-2.13 0.06,-0.81 0.41,-2.29 0.74,-3.04 0.35,-0.75 0.59,-1.1 1.07,-1.77 0.48,-0.67 0.93,-1.69 1.09,-2.5 0.07,-0.37 0.14,-0.78 0.2,-1.15 0.31,-1.74 0.21,-3.53 0.27,-5.29 0.04,-1.33 0.63,-2.82 1.09,-4.07 0.37,-1.02 0.33,-2.02 0.48,-3.07 0.28,-2.04 0.2,-4.3 0.23,-6.37 0,-0.35 -0.1,-0.29 -0.12,-0.01 -0.06,1.01 -0.04,2.14 -0.06,3.16 -0.02,1.2 -0.07,2.19 -0.24,3.38 -0.15,1.13 -0.08,1.91 -0.53,3.03 -0.39,0.98 -0.91,2.47 -1.02,3.5 -0.08,0.72 -0.06,1.64 -0.08,2.4 -0.04,1.29 -0.09,2.41 -0.35,3.69 -0.2,0.98 -0.17,1.19 -0.63,2.13 -0.27,0.55 -0.38,0.76 -0.75,1.24 -0.66,0.85 -1.15,1.85 -1.42,2.9 -0.21,0.84 -0.33,1.24 -0.4,2.13 -0.07,0.83 -0.17,1.26 -0.36,2.05 -0.2,0.82 -0.17,1.5 -0.49,2.34 -0.14,0.37 -0.3,0.72 -0.44,1.09 -0.34,0.91 -0.61,1.8 -0.95,2.71 -0.38,1.02 -0.52,1.77 -0.75,2.81 -0.1,0.5 -0.24,0.96 -0.34,1.46 -0.2,1.02 -0.3,2.09 -0.89,2.99 -0.22,0.34 -0.31,0.53 -0.48,0.89 -0.2,0.41 -0.44,0.78 -0.69,1.15 -0.93,1.39 -1.8,2.63 -2.73,3.78 -0.7,0.65 -1.39,1.3 -2.06,1.98 -0.67,0.67 -1.31,1.37 -1.94,2.08 -0.96,0.85 -1.77,1.78 -2.51,2.77 -0.74,0.99 -1.4,2.03 -2.04,3.09 -1.28,2.32 -2.48,5.12 -4.47,7.12 0.4,-2 0.41,-3.89 1.3,-5.5 0.71,-1.48 1.8,-5.2 1.6,-6.99 -1.09,-0.41 -1.85,1.98 -2.86,2.11 -1.35,0.35 -2.75,2.55 -3.83,3.19 -1.09,0.64 -5.31,3.33 -6.2,4.19 -5.45,5.81 -4.79,10.19 -10.79,15.78 1.6,-6.79 5.2,-15.18 10.95,-19.72 1.1,-0.78 2.21,-1.54 3.28,-2.28 1.07,-0.74 2.11,-1.48 3.07,-2.2 0.96,-0.8 1.8,-1.63 2.48,-2.52 0.89,-0.89 1.65,-1.8 2.26,-2.74 0.74,-1 1.56,-1.91 3.21,-2.52 2.33,-0.8 3.07,-3.77 4.56,-5.58 0.27,-0.33 0.49,-0.52 0.78,-0.82 0.8,-0.84 0.69,-1.91 1.13,-2.97 0.32,-0.77 1.26,-1.8 1.8,-2.52 0.67,-0.89 0.99,-1.07 1.34,-2.19 0.15,-0.48 0.35,-0.96 0.5,-1.44 0.2,-0.65 -0.19,-0.69 -0.5,-0.16 -0.45,0.75 -0.6,1.69 -1.17,2.34 -0.31,0.35 -0.67,0.7 -0.99,1.06 -0.78,0.87 -1.71,1.54 -2.42,2.46 -0.56,0.72 -0.89,1.37 -1.57,2.03 -0.74,0.71 -1.26,1.32 -1.91,2.1 -0.65,0.77 -1.23,1.36 -2.22,1.69 l -0.16,0.05 c -2.16,0.69 -3,1.63 -4.89,2.87 -0.55,0.36 -1.15,0.61 -1.74,0.93 -0.97,0.57 -1.92,1.2 -2.85,1.85 -0.87,0.64 -1.73,1.28 -2.58,1.92 -1.06,0.73 -2.1,1.48 -3.12,2.26 -4.8,3.67 -9.33,7.66 -13.86,11.66 -0.61,0.54 -1.21,1.23 -1.8,1.82 -0.7,0.71 -1.41,1.41 -2.12,2.11 -0.38,0.37 -1.14,1.31 -1.41,1.77 -0.33,0.56 -0.5,1.06 -0.75,1.65 -0.43,1.01 -0.73,1.96 -1.03,3.01 -0.04,0.15 -0.35,1.32 -0.67,0.96 -0.15,-0.17 0.22,-1.46 0.28,-1.7 0.24,-0.95 0.52,-1.82 0.87,-2.74 0.29,-0.76 0.39,-1.18 0.85,-1.91 0.27,-0.42 0.67,-0.91 0.98,-1.31 0.38,-0.48 0.95,-1.02 1.38,-1.49 0.78,-0.85 1.41,-1.54 2.07,-2.49 2.17,-3.07 4.81,-6.4 7.57,-8.94 0.99,-0.91 2.02,-1.74 3.12,-2.51 0.92,-0.65 1.87,-1.24 2.87,-1.77 0.8,-0.8 1.2,-2 1.55,-2.69 0.15,-0.48 0.17,-1.04 -0.14,-1.43 -0.64,-0.83 -1.57,0.4 -2.16,0.78 -1.13,0.75 -2.28,1.09 -3.44,1.49 -5.75,3.61 -11.48,7.87 -15.49,13.43 -0.33,0.46 -0.66,1.09 -0.95,1.58 -0.2,0.33 -0.36,0.66 -0.56,1 -0.5,0.82 -1.02,1.59 -1.46,2.44 -0.3,0.55 -0.54,1 -0.81,1.58 -0.27,0.59 -0.61,1.2 -0.9,1.8 -0.22,0.44 -0.43,0.78 -0.61,1.26 -0.37,0.95 -0.79,2.09 -0.96,3.08 -0.07,0.39 -0.14,0.76 -0.21,1.14 -0.05,0.24 0.1,-0.31 0.1,-0.31 0.09,-0.39 0.15,-0.8 0.25,-1.19 -0.08,0.36 -0.26,1.76 -0.58,1.91 -0.4,0.19 -0.18,-0.92 -0.16,-1.08 0.1,-0.81 0.17,-1.26 0.41,-2.06 0.3,-1.02 0.53,-1.88 0.98,-2.85 0.22,-0.47 0.41,-1.03 0.63,-1.52 0.29,-0.66 0.49,-1.3 0.8,-1.96 0.22,-0.48 0.37,-0.88 0.64,-1.37 0.41,-0.75 0.75,-1.36 1.07,-2.16 0.25,-0.63 0.46,-1.12 0.67,-1.76 0.34,-1.06 0.56,-2.02 0.56,-3.14 -3.2,0.27 -7.01,0.77 -9.96,2.05 -1.38,0.6 -2.57,1.59 -3.71,2.57 -0.57,0.49 -1.06,0.94 -1.66,1.41 -0.46,0.35 -0.89,0.68 -1.34,1.05 -1.35,1.13 -2.35,1.94 -3.26,3.5 -0.4,0.69 -0.49,1.59 -0.82,2.11 -0.2,0.31 -0.52,0.34 -0.38,-0.17 0.15,-0.51 0.27,-1.08 0.43,-1.57 0.28,-0.89 1.12,-2.11 1.75,-2.81 0.62,-0.69 1.36,-1.43 2.03,-2.07 0.31,-0.3 0.63,-0.57 0.94,-0.87 0.65,-0.63 1.28,-1.37 1.91,-2.04 0.91,-0.94 1.75,-1.77 2.77,-2.59 1.54,-1.24 3.28,-2.5 5.26,-2.9 0.15,-0.03 0.29,-0.05 0.44,-0.07 7.59,-0.4 11.59,-5.99 17.62,-9.26 0.82,-0.4 1.66,-0.74 2.51,-1.02 2.82,-0.84 4.07,-0.7 6.51,-3.35 1.69,-1.83 3.84,-1.44 5.67,-2.04 l -5.41,-1.91 c 0,0 -3.96,-1.7 -6.05,-1.7 -2.09,0 -4.1,1.36 -5.56,2.5 -1.46,1.13 -5.35,4.89 -6.54,6.02 -1.18,1.14 -1.88,2.05 -3.15,3.19 -1.26,1.15 -3.74,1.36 -3.19,1.24 0.28,-0.06 1.39,-1.15 2.26,-2.19 0.87,-1.03 1.52,-2 0.87,-1.8 -1.28,0.4 -2.99,-0.46 -4.13,-0.85 -0.57,-0.2 -2.5,-0.7 -4.27,-1.14 -3.89,-2.32 -6.39,1.18 -8.84,3.72 -0.82,0.85 -1.37,1.58 -2.04,2.55 -0.35,0.52 -0.67,0.94 -0.99,1.48 -0.55,0.93 -1.18,1.75 -1.87,2.56 -0.29,0.33 -0.48,0.57 -0.81,0.89 -0.75,0.74 -1.42,1.48 -2.21,2.19 -0.48,0.43 -1.72,1.64 -2.02,2.16 -0.13,0.21 -0.8,1.72 -1.06,1.41 -0.11,-0.13 0.19,-0.59 0.26,-0.73 0.49,-0.99 0.44,-1.02 1.22,-1.87 0.48,-0.53 0.91,-0.98 1.43,-1.47 0.72,-0.68 1.41,-1.51 2.09,-2.24 0.61,-0.65 1.42,-1.84 1.84,-2.62 0.53,-0.98 0.98,-2.01 1.48,-3.02 0.65,-1.32 0.91,-2.03 1.94,-3.13 0.49,-0.52 1.17,-1.07 1.59,-1.58 0.22,-0.26 0.4,-0.54 0.07,-0.79 -4.8,-3.2 -10.69,-1.1 -13.09,4.89 -0.04,0.48 -0.83,1.4 -1.15,1.81 -0.46,0.58 -0.8,0.96 -1.32,1.47 -0.6,0.59 -1.09,1.22 -1.72,1.81 -0.7,0.67 -1.35,1.35 -2.08,1.99 -0.96,0.84 -1.61,1.54 -2.27,2.64 -0.07,0.12 -0.9,1.65 -1.12,1.23 -0.09,-0.18 0.42,-0.96 0.52,-1.15 0.54,-0.97 0.95,-1.61 1.7,-2.44 0.55,-0.61 1.23,-1.18 1.79,-1.81 0.56,-0.64 1.08,-1.19 1.59,-1.88 0.35,-0.48 0.69,-0.95 1.06,-1.43 0.55,-0.72 0.98,-1.54 1.28,-2.39 0.34,-1.02 0.7,-1.37 1.28,-2.25 0.44,-0.67 0.93,-1.46 0.94,-2.28 -5.59,1.6 -14.19,3.4 -19.38,1.4 1.2,0 2.4,0.8 4,0.4 11.99,-2 23.57,-7.99 35.58,-4.59 1.09,0.24 2.13,0.48 3.11,0.69 1.95,0.43 3.61,0.76 4.79,0.76 4.73,0 6.81,-6.13 11.68,-8.86 4.87,-2.72 9.14,-2.75 13.17,-0.93 2.19,0.98 4.69,0.72 7.32,1.05 0.79,-1.16 1.47,-1.17 3.27,-1.85 1.21,-0.46 2.43,-0.93 3.64,-1.43 3.56,-1.48 3.87,-1.86 6.62,-5.15 0.98,-4.55 1.81,-2.47 1.93,-7.81 l 0.79,-5.41 c 1.08,-7.01 1.76,-14.1 1.6,-21.19 -0.01,-0.55 -0.06,-1.34 0.72,-0.78 1.19,0.85 1.83,1.67 2.72,2.79 0.49,0.61 0.89,0.96 1.28,1.7 0.43,0.8 0.63,1.34 0.81,2.24 0.14,0.72 0.35,1.35 0.47,2.08 0.09,0.53 0.24,1.05 0.37,1.57 0.1,0.38 0.25,0.75 0.36,1.15 0.09,0.32 0.53,1.74 0.7,1.87 0.22,0.16 0.16,-0.25 0.13,-0.34 -0.13,-0.56 -0.36,-1.13 -0.5,-1.71 -0.11,-0.43 -0.25,-0.8 -0.35,-1.24 -0.11,-0.52 -0.22,-0.88 -0.3,-1.43 -0.1,-0.74 -0.31,-1.44 -0.43,-2.2 -0.21,-1.38 -0.81,-2.63 -1.66,-3.73 -0.44,-0.57 -0.84,-1.27 -1.28,-1.88 -0.5,-0.69 -1.01,-1.36 -1.42,-2.11 -0.63,-1.16 -1.27,-2.15 -1.72,-3.41 -0.22,-0.61 -0.33,-0.93 -0.42,-1.59 -0.53,-4.19 -1.51,-8.41 -3.3,-12.25 -0.5,-1.08 1.17,-0.67 1.64,-0.48 0.66,0.26 1.35,0.72 1.98,1.09 0.87,0.5 1.49,0.89 2.29,1.5 0.17,0.13 0.94,0.76 1.11,0.44 0.13,-0.24 -0.62,-0.82 -0.8,-0.99 -1.06,-0.93 -2.23,-1.65 -3.32,-2.56 -0.76,-0.62 -1.73,-1.16 -2.59,-1.64 -1.08,-0.61 -1.18,-0.5 -2.05,-1.55 -0.54,-0.65 -1,-1.87 -1.36,-2.69 -3.31,-7.35 -7.16,-13.04 -14.61,-16.73 -5.91,-2.92 -12.76,-3.83 -19.3,-3.9 -4.88,0 -8.54,0 -12.1,1.09 -17.73,6.54 -27.7,18.54 -51.22,14.17 -1.22,0 -0.09,-1.09 1.13,-1.09 24.84,5.45 39.04,-14.17 59.49,-17.44 -6.37,-3.27 -15,-4.36 -21.28,-6.54 -10.79,2.18 -20.45,3.27 -31.79,-1.09 -0.09,-1.09 -0.09,-1.09 -0.09,-1.09 11.34,4.36 21,3.27 29.26,0 -8.69,-5.31 -15.61,-12.98 -18.66,-21.92 -0.95,-2.79 0.4,-1.67 1.33,0.09 1.28,2.44 2.04,4.2 3.65,6.59 12.96,19.25 38.6,21 60.27,22.83 l 0.38,0.04 c -5.06,-6.95 -10.34,-13.57 -14.7,-20.88 -0.72,-1.22 -0.29,-0.87 -1.81,-1.13 -6.78,-1.23 -9.48,-2.7 -15.28,-5.99 -2.34,-1.33 -5.02,-1.89 -7.67,-2.19 -1.36,-0.16 -2.87,0.07 -4.36,-0.01 -1.56,-0.08 -3.84,-0.28 -5.33,-0.8 -2.68,-1.06 -5.02,-3.12 -6.61,-5.3 -0.78,-1.09 2.24,1.77 2.26,1.78 3.34,2.55 5.31,2.6 9.37,3.01 1.67,0.17 5.22,0.35 4.98,-1.87 -0.14,-1.29 -2.31,-2.75 -3.37,-3.93 -3.26,-3.66 -6.13,-8.54 -8,-12.85 1.62,-0.02 1.06,-0.26 1.91,1.26 2.74,4.9 6.02,10 10.37,13.97 2.02,1.84 2.8,3 5.4,4.52 4.86,2.84 10.36,5.02 16.06,5.28 -0.86,-2.45 -1.96,-4.92 -2.85,-7.42 -1.56,-4.39 -2.68,-8.43 -3.88,-12.87 -0.7,-2.61 -2.16,-2.89 -4.28,-4.62 -1.89,-1.57 -3.51,-3.41 -5.29,-4.87 -1.49,-1.22 -2.88,-1.71 -4.63,-2.51 -1.83,-0.84 1.72,-0.05 2.04,0.05 4.83,1.64 8.77,6.41 10.08,6.84 1.41,0.46 0.48,-3.17 0.37,-3.91 -0.79,-4.96 -1.98,-9.81 -1.96,-14.77 0,-0.84 -0.11,-1.63 0.98,-1.22 0.46,1.64 1.09,3.84 1.32,5.63 0.52,3.98 1.47,7.64 2.12,11.56 0.31,1.89 0.67,3.97 2.14,5.52 1.48,1.42 2.8,-1.59 3.26,-2.42 1.26,-5.05 1.98,-1.41 3.68,-6.28 -0.2,-1.88 1.06,-4.44 0.64,-1.02 -0.01,4.54 -1.96,2.28 -2.76,9.28 -1.45,3.36 -4.15,3.04 -2.41,8.12 0.25,0.73 1.34,4.79 3.04,7.97 1.37,2.57 3.34,4.35 3.58,4.89 2.54,5.71 2.79,-2.19 4.6,-4.73 1.71,-2.33 2.89,-4.11 5.47,-5.8 1.58,-0.97 2.46,-0.22 1.76,-0.03 -0.66,0.19 -1.34,1.4 -1.76,1.94 -2,2.57 -2.77,3.94 -3.7,7.01 -1.19,4.55 -1.8,7.64 0.29,12.35 0.76,1.7 3,3.74 4.3,5.42 1.85,2.39 3.8,4.63 5.66,7.05 0.68,0.88 2.4,3.54 3.7,3.29 0.69,-0.13 1.23,-0.94 1.57,-1.42 1.65,-2.51 1.43,-6.13 1.52,-9.09 0.09,-2.98 0.15,-5.17 0.67,-8.13 0.48,-2.72 0.43,-5.38 0.93,-8.18 0.33,-1.86 0.94,-4.93 0,-6.74 -0.71,-1.16 -2.38,-2.48 -3.43,-3.5 -2.71,-2.75 -4.99,-5.38 -7.52,-8.23 -2.99,-3.37 -5.11,-3.58 -8.13,-6.17 -2.94,-2.52 -4.33,-6.46 -4.4,-9.89 -0.05,-2.61 0.93,-0.19 1.09,0.78 0.56,3.17 0.11,4.57 2.88,7.32 2.67,2.64 5.93,3.44 8.85,6.35 1.25,1.28 5.89,6.84 9.3,8.41 0.71,0.33 1.54,1.72 2.11,1.63 0.73,-0.12 1.13,-1.91 1.44,-3.02 0.87,-3.09 1.2,-8.21 0.59,-11.44 -0.56,-2.99 -0.39,-2.13 0.19,-4.51 -0.11,0.07 0.13,-0.65 0.03,-0.57 -3.87,-5.5 -7.43,-11.19 -10.14,-17.41 -11.79,-1.62 -24.45,-4.7 -29.42,-16.88 0.79,-0.32 1.38,0.31 2.56,1.74 3.23,7.05 10.89,10.09 18.8,11.8 2.5,0.54 5.02,0.95 7.44,1.31 -3.72,-9.74 -3.73,-12.26 -2.83,-22.89 0.2,-1.05 0.7,-1.43 1.54,-1.36 -0.79,9.42 0.21,14.63 2.91,21.94 2.46,6.66 6.01,12.69 9.98,18.49 0.43,-3.28 0.88,-7.75 2.02,-9.4 0.28,1.21 -0.31,11.97 -0.57,13.81 -0.39,2.81 0.32,4.16 0.36,6.81 0.07,5.03 -1.82,10.04 -2.28,15.07 -0.27,3.19 -0.57,5.97 -1.05,9.14 -0.38,2.57 1.08,2.84 3.3,1.67 4.36,-2.31 4.45,-8.7 9.2,-11.77 0.46,-0.28 1.59,-0.81 2.77,-1.27 l 0.1,1.19 c -0.39,0.15 -0.66,0.25 -0.69,0.26 -4.07,1.77 -4.8,6.09 -6.81,9.49 -1.96,3.24 -3.48,4.1 -6.13,6.62 -3.03,2.89 -2.22,5.56 -2.09,9.31 0.18,5.04 -0.15,8.17 -0.89,13.06 -0.39,2.55 -0.15,3.23 1.71,5.38 3.61,3.96 6.96,8.57 9.63,13.21 0.34,0.59 0.52,1.23 0.7,1.89 0.11,0.39 0.35,0.8 0.48,1.22 0.32,1.04 0.46,2.96 0.5,4.08 0.02,0.41 -0.11,1.1 -0.14,1.56 -0.04,0.45 -0.05,0.7 -0.13,1.16 -0.12,0.63 -0.15,1.22 -0.29,1.83 -0.38,1.64 -0.32,3.6 -0.33,5.29 0,0.2 -0.03,1.06 0.12,1.16 0.33,0.22 0.32,-1.41 0.32,-1.56 0.05,-1.62 0.05,-3.32 0.5,-4.88 0.16,-0.54 0.2,-1.09 0.35,-1.67 0.1,-0.39 0.18,-0.65 0.24,-1.07 0.07,-0.54 0.19,-0.94 0.3,-1.45 0.09,-0.42 0.11,-1.29 0.15,-1.76 0.07,-1.01 0.14,-2.05 0.23,-3.05 0.09,-1.08 0.57,-1.77 1.06,-2.71 0.56,-1.08 1.08,-2.16 1.57,-3.27 2.06,-4.66 4.37,-9.88 5.76,-16.56 -7.22,-2.9 -9.94,-9.77 -12.39,-16.36 0.38,-2.59 -0.06,-3.12 1.81,-1.19 1.99,5.35 5.32,11.53 11.17,14.27 1,-6.65 1.05,-14.66 -0.78,-24.77 -0.3,-1.62 -0.96,-3.74 -1.73,-6.2 -2.74,-8.73 -6.28,-19.4 -1.07,-34.24 -1.19,-4.67 -7.97,-13.7 -9.8,-19.44 -2.52,-6.83 -4.47,-14.83 -3.74,-23.61 0.99,-2 1.42,0.54 1.4,2.4 -0.7,8.37 1.69,13.38 4.09,19.88 0.16,0.44 0.33,0.87 0.5,1.3 9.3,-0.41 23.7,-3.87 27.63,-14.7 1.6,-1.68 1.04,-1.43 1.18,0.48 -4.74,11.63 -16.96,14.39 -28.28,16.1 2.13,4.73 5.35,9.67 8.3,13.93 0.89,-2.26 0.75,-2.24 2.05,-4.61 1.02,-1.18 2.5,-1.11 1.6,0.7 -6.92,12.69 -6.47,20.89 -1.76,34.33 0.44,1.26 1.16,1.73 2.46,0.86 3.6,-2.72 4.83,-8.98 4.36,-13 -0.41,-3.5 -0.65,-5.42 -0.14,-8.98 0.07,-0.46 0.43,-3.54 1.29,-3.35 0.49,0.11 0.04,2.53 0,2.91 -0.4,3.4 -0.34,5.17 0.13,8.53 0.35,2.43 0.37,3.82 0.12,6.26 -0.02,0.18 -0.04,0.36 -0.06,0.55 -0.47,3.22 -2.18,7.47 -3.63,10.45 -1.9,3.87 -1.09,4.96 0.31,8.72 0.13,0.37 0.27,0.74 0.41,1.11 4.92,27.22 -4.15,35.41 -6.2,61.39 0.88,2.19 1.46,4.04 1.98,6.33 0.24,1.04 0.42,2.11 0.65,3.16 0.12,0.56 0.28,1.03 0.37,1.61 0.17,1 0.24,2.22 0.31,3.24 0.06,0.79 0.11,1.58 0.15,2.37 0.03,0.5 -0.02,1.18 -0.04,1.69 -0.04,1.07 -0.52,2.32 -0.9,3.32 -0.24,0.62 -0.57,1.24 -0.81,1.87 -0.31,0.8 -0.59,1.47 -0.85,2.3 -0.15,0.47 -0.27,0.81 -0.37,1.31 -0.13,0.62 -0.24,1.04 -0.31,1.69 -0.11,1.07 -0.34,1.59 -0.17,2.72 0.09,0.61 0.13,1.15 0.26,1.76 0.02,0.08 0.18,0.96 0.18,0.96 0.1,0.19 0.18,-0.11 0.18,-0.26 -0.01,-0.45 -0.2,-1.03 -0.24,-1.52 -0.09,-1.02 -0.23,-1.46 -0.07,-2.53 0.07,-0.46 0.15,-0.91 0.22,-1.38 0.2,-1.48 0.87,-3.3 1.48,-4.67 0.39,-0.89 0.83,-1.72 1.19,-2.63 0.44,-1.12 0.81,-1.92 0.91,-3.16 0.05,-0.59 0.14,-1.1 0.15,-1.7 0.04,-1.76 0.15,-3.56 0.13,-5.32 -0.01,-1.01 -0.17,-1.9 -0.13,-2.93 0.05,-1.05 0.2,-1.44 0.49,-2.44 3.83,-12.81 8.06,-22.94 17.2,-32.97 1.87,-2.15 2.1,-2.83 1.71,-5.38 -0.74,-4.89 -1.06,-8.02 -0.89,-13.06 0.13,-3.76 0.94,-6.43 -2.09,-9.31 -2.65,-2.52 -3.88,-3.54 -6.13,-6.62 -1.84,-2.51 -1.54,-2.76 2.32,0.52 0.72,0.61 1.49,1.17 2.26,1.58 2.21,1.17 3.68,0.91 3.3,-1.67 -0.47,-3.17 -0.78,-5.94 -1.05,-9.14 -0.45,-5.03 -2.34,-10.04 -2.28,-15.07 0.04,-2.65 0.75,-4 0.35,-6.81 -0.26,-1.84 -0.85,-12.6 -0.56,-13.81 1.23,1.77 1.66,6.83 2.12,10.13 7.5,-10.81 12.6,-21.2 13.76,-33.46 0.18,-1.9 0.84,-3.61 0.82,-5.61 0.4,-0.89 0.88,-1.48 1.25,-0.22 -0.44,17.52 -4.54,27.69 -14.5,41.82 -0.19,0.35 -0.38,0.69 -0.57,1.04 0.63,2.92 0.78,0.87 0.18,4.05 -0.61,3.24 -0.27,8.36 0.59,11.44 0.31,1.11 0.72,2.89 1.44,3.02 0.57,0.09 1.39,-1.3 2.11,-1.63 3.41,-1.56 8.04,-7.12 9.3,-8.41 2.91,-2.91 6.17,-3.7 8.85,-6.35 2.78,-2.74 2.32,-4.15 2.88,-7.32 0.17,-0.98 1.14,-3.4 1.09,-0.78 -0.07,3.43 -1.46,7.37 -4.4,9.89 -3.02,2.59 -5.14,2.8 -8.13,6.17 -2.53,2.85 -4.81,5.48 -7.52,8.23 -1.04,1.02 -2.71,2.35 -3.43,3.5 -0.94,1.81 -0.33,4.88 0,6.74 0.5,2.8 0.45,5.45 0.93,8.18 0.52,2.95 0.57,5.14 0.67,8.13 0.09,2.96 -0.13,6.58 1.52,9.09 0.34,0.48 0.88,1.29 1.57,1.42 1.3,0.25 3.02,-2.41 3.7,-3.29 1.86,-2.42 3.81,-4.66 5.66,-7.05 1.29,-1.68 3.54,-3.71 4.3,-5.42 2.09,-4.7 1.48,-7.8 0.29,-12.35 -0.93,-3.06 -1.7,-4.44 -3.7,-7.01 -0.42,-0.54 -1.11,-1.75 -1.76,-1.94 -0.7,-0.19 0.18,-0.94 1.76,0.03 2.59,1.69 3.76,3.46 5.47,5.8 1.81,2.54 2.06,10.44 4.6,4.73 0.24,-0.54 2.21,-2.32 3.58,-4.89 1.69,-3.18 2.79,-7.24 3.04,-7.97 1.74,-5.08 -0.97,-4.76 -2.42,-8.12 -1.84,-4.26 -2.31,-6.01 -2.11,-8.37 0.44,0.26 0.93,0.46 1.44,0.58 0.19,1.73 0.81,3.34 2.24,5.81 0.46,0.83 1.78,3.84 3.26,2.42 1.47,-1.56 1.82,-3.63 2.14,-5.52 0.65,-3.92 1.61,-7.58 2.12,-11.56 0.23,-1.79 0.26,-4.24 0.72,-5.88 1.09,-0.41 0.97,0.39 0.98,1.22 0.02,4.96 -0.57,10.06 -1.37,15.02 -0.12,0.75 -1.05,4.37 0.37,3.91 1.31,-0.43 5.24,-5.2 10.08,-6.84 0.32,-0.1 3.87,-0.89 2.04,-0.05 -1.75,0.8 -3.14,1.29 -4.63,2.51 -1.78,1.46 -3.41,3.3 -5.29,4.87 -2.11,1.73 -3.57,2.01 -4.28,4.62 -1.2,4.44 -2.33,8.47 -3.88,12.87 -0.89,2.5 -2,4.97 -2.85,7.42 5.7,-0.26 11.19,-2.43 16.06,-5.28 2.59,-1.52 3.38,-2.68 5.4,-4.52 4.35,-3.97 7.63,-9.07 10.37,-13.97 0.85,-1.52 0.29,-1.28 1.91,-1.26 -1.88,4.31 -4.75,9.19 -8.01,12.85 -1.05,1.17 -3.23,2.64 -3.37,3.93 -0.24,2.22 3.31,2.04 4.98,1.87 4.06,-0.41 6.03,-0.46 9.37,-3.01 0.01,-0.01 2.27,-1.52 1.48,-0.43 -1.59,2.19 -3.15,2.93 -5.85,3.95 -1.47,0.56 -3.76,0.72 -5.32,0.8 -1.49,0.07 -3,-0.15 -4.36,0.01 -2.65,0.3 -5.33,0.87 -7.67,2.19 -5.81,3.28 -8.51,4.76 -15.28,5.99 -1.52,0.27 -1.09,-0.09 -1.81,1.13 -4.37,7.31 -9.65,13.93 -14.7,20.88 l 0.38,-0.04 c 21.67,-1.83 47.31,-3.58 60.27,-22.83 1.61,-2.39 2.37,-4.15 3.65,-6.59 0.93,-1.77 2.28,-2.88 1.32,-0.09 -3.04,8.94 -9.97,16.61 -18.65,21.92 8.26,3.27 17.92,4.36 29.26,0 0,0 0,0 -0.09,1.09 -11.34,4.36 -21,3.27 -31.79,1.09 -6.28,2.18 -14.9,3.27 -21.28,6.54 20.45,3.27 34.65,22.9 59.49,17.44 1.22,0 2.35,1.09 1.13,1.09 -23.53,4.36 -33.49,-7.63 -51.22,-14.17 -3.56,-1.09 -7.22,-1.09 -12.1,-1.09 -27.5,0.28 -31.58,15.71 -36.34,26.17 v 0 z m 102.06,-98.2 c 8.92,-2.82 12.89,-11.28 8.92,-18.81 -8.92,1.88 -12.89,11.28 -8.92,18.81 z M 126.88,204.31 c -6.69,-4.59 -7.67,-13.89 -1.41,-19.43 5.85,4.02 6.84,13.32 1.41,19.43 z m 58.72,3.18 c 7.32,-4.35 9,-14.02 2.82,-20.25 -6.41,3.81 -8.08,13.48 -2.82,20.25 z M 43.86,98.46 C 35.6,95.35 33.38,87.35 38.62,81.72 c 7.4,3.81 10.48,11.11 5.24,16.74 z M 63.32,148 c -6.1,-2.67 -7.73,-9.52 -3.87,-14.34 5.46,3.26 7.73,9.52 3.87,14.34 z m 45.33,18.22 c -7.17,-1.78 -10.22,-8.97 -6.9,-14.96 6.58,2.56 10.22,8.97 6.9,14.96 z M 93.72,139.99 c -5.94,-4.37 -6.04,-12.19 -0.68,-16.46 5.11,4.87 6.04,12.19 0.68,16.46 z m 49.35,41.31 c 3.27,-5.9 0.37,-12.42 -5.72,-13.93 -2.38,5.99 -0.36,12.42 5.72,13.93 z m 4.89,6.01 c 6.42,-3.64 7.44,-11.39 2.63,-16.27 -5.65,4.23 -7.44,11.39 -2.63,16.27 z m 17.65,-0.65 c 6.42,-3.64 7.44,-11.39 2.63,-16.27 -5.65,4.23 -7.44,11.39 -2.63,16.27 z M 67.94,170.35 c 5.02,-5.42 12.79,-4.63 16.43,1.18 -5.41,4.53 -12.79,4.63 -16.43,-1.18 z m 22.93,-7.04 c -2.91,-6.79 0.97,-13.57 7.75,-14.54 1.94,6.79 -0.97,13.57 -7.75,14.54 z m 31.85,-5.67 c -3.04,-6.09 0,-13.7 6.85,-15.22 3.8,6.09 -0.76,12.94 -6.85,15.22 z m 22.41,11.11 c 3.02,-6.74 -0.76,-13.58 -7.53,-14.65 -2.04,6.76 0.76,13.58 7.53,14.65 z m 33.22,4.83 c 1,-7.31 -4.55,-12.82 -11.35,-11.94 -0.06,7.06 4.55,12.82 11.35,11.94 z m 27.98,-39.64 c 0,-6.87 -6.01,-12.02 -12.87,-10.3 0,6.01 6.01,11.15 12.87,10.3 z m 38.92,9.19 c 6.35,2.04 12.11,-2.03 12.41,-8.21 -6.27,-1.17 -12.11,2.03 -12.41,8.21 z m -15.72,27.38 c 4.08,4.29 11.64,2.31 14.66,-2.95 -4.54,-3.29 -11.63,-2.31 -14.66,2.95 z M 243.2,51.22 c -5.89,4.45 -5.88,12.26 -0.47,16.47 5.05,-4.93 5.88,-12.26 0.47,-16.47 z M 192,159.09 c 3.28,-6.56 0,-14.75 -7.37,-16.39 -4.09,6.56 0.82,13.93 7.37,16.39 z m 16.3,-7.5 c -2.85,5.19 1.31,11.8 7.25,13.08 1.76,-5.32 -1.31,-11.79 -7.25,-13.08 z M 107,192.06 c 6.17,4.67 4.7,14.77 -1.7,19.46 -4.93,-5.41 -4.7,-14.77 1.7,-19.46 z m -17.18,-0.17 c 6.22,3.05 6.67,12.18 1.85,17.4 -5.27,-3.91 -6.67,-12.18 -1.85,-17.4 z m 8.1,6.84 c -6.12,-7.78 -3.89,-18.97 5.42,-23.14 5.35,6.81 3.13,18 -5.42,23.14 z m -14.46,-2.86 c 3.84,7.37 -2.22,16.49 -10.59,18.1 -2.3,-7.52 2.22,-16.49 10.59,-18.1 z m 35.81,-1.7 c -8.02,-1.24 -12.94,-9.19 -9.69,-16.89 7.02,1.09 11.94,9.04 9.69,16.89 z M 91.99,175.42 c 4,7.28 -1.84,16.54 -10.17,18.35 -2.47,-7.46 1.84,-16.54 10.17,-18.35 z m -16.67,7.51 c 4.39,8.09 -0.41,18.53 -9,20.06 -4.39,-8.09 0.41,-18.53 9,-20.06 z m -51.9,11.46 c 0.89,8.81 -6.77,14.82 -14.17,14.28 -1.17,-7.96 5.91,-15.1 14.17,-14.28 z m 37.76,-3.6 c 0.89,8.81 -6.77,14.82 -14.17,14.28 -1.17,-7.96 5.91,-15.1 14.17,-14.28 z m -15.91,1.31 c -1.97,8.87 -10.85,13.81 -18.74,9.86 0.99,-7.89 9.87,-12.82 18.74,-9.86 z m -10.91,-4.53 c -3.91,6.26 -12.51,5.37 -17.2,-0.89 5.47,-5.36 13.29,-5.36 17.2,0.89 z m 260.69,-15.9 c -2.75,7.78 4.48,15.91 12.93,16.33 1.22,-7.72 -4.48,-15.91 -12.93,-16.33 z m -285,-9.33 c -2.43,7.88 5.12,15.72 13.57,15.8 0.91,-7.76 -5.12,-15.71 -13.57,-15.8 z m 213.83,29.56 c -6.22,3.05 -6.67,12.18 -1.85,17.4 5.27,-3.91 6.67,-12.18 1.85,-17.4 z m -8.1,6.84 c 6.12,-7.78 3.9,-18.97 -5.41,-23.14 -5.35,6.81 -3.13,18 5.41,23.14 z M 5.5,117.97 c -3.83,7.37 2.22,16.49 10.59,18.1 2.3,-7.52 -2.22,-16.49 -10.59,-18.1 z M 142.91,45.88 c -3.8,-6.7 -0.8,-14.32 5.87,-16.26 2.83,6.83 0.8,14.32 -5.87,16.26 z M 133.12,28.5 c -3.8,-6.7 -0.81,-14.32 5.86,-16.26 2.83,6.83 0.81,14.32 -5.86,16.26 z M 119.32,18.15 C 113.43,13.18 113.61,5 119.19,0.87 c 5.02,5.43 5.71,13.16 0.13,17.28 z m 4.81,46.91 c -3.8,-6.7 -0.8,-14.32 5.87,-16.26 2.83,6.83 0.8,14.32 -5.87,16.26 z m 70.48,131.3 c 8.36,-1.61 13.22,-10.14 9.51,-18.1 -7.31,1.41 -12.17,9.94 -9.51,18.1 z M 125.26,43.49 c 1,-7.31 -4.55,-12.82 -11.35,-11.94 -0.06,7.06 4.55,12.82 11.35,11.94 z m 52.34,117.47 c 1,-7.31 -4.55,-12.82 -11.35,-11.94 -0.06,7.06 4.55,12.82 11.35,11.94 z m -20.27,-7.93 c 1,-7.31 -4.55,-12.81 -11.35,-11.94 -0.06,7.06 4.55,12.82 11.35,11.94 z m -19.74,-16.99 c 1.02,-6.5 7.17,-9.78 12.75,-7.3 -1.76,6.04 -7.17,9.78 -12.75,7.3 z m 12.67,-9.91 c 2.52,-6.94 -1.73,-13.49 -8.56,-14.08 -1.56,6.89 1.73,13.49 8.56,14.08 z m -9.85,-16.21 c 7.38,0.1 12.18,-6.06 10.49,-12.71 -7.01,0.79 -12.18,6.06 -10.49,12.71 z M 61.03,80.18 C 53.49,86.77 43,84.74 38.79,76.52 c 7.96,-5.36 18.03,-4.56 22.24,3.66 z m 87.91,14.58 c -5.51,4.92 -13.17,3.4 -16.25,-2.73 5.81,-4 13.17,-3.4 16.25,2.73 z m -9.66,-34.39 c -7.42,-3.38 -9.08,-11.35 -4.02,-16.71 6.6,4.04 9.08,11.35 4.02,16.71 z M 105.72,34.02 c 7.8,-1.22 11.79,-9.01 8.88,-16.15 -7.25,2.16 -11.79,9.01 -8.88,16.15 z M 93.74,74.17 c 7.79,-1.22 11.79,-9.01 8.88,-16.15 -7.25,2.16 -11.79,9.01 -8.88,16.15 z m 14.91,10.42 c 5.19,-3.59 12.22,-1.74 14.51,4.35 -4.54,3.14 -11.57,1.29 -14.51,-4.35 z m -8.81,28.89 c -2.94,-6.7 0.71,-14.3 8.15,-15.57 2.57,5.86 -1.08,13.46 -8.15,15.57 z m 21.49,-34.74 c -0.2,-7.38 -6.57,-11.91 -13.13,-9.95 1.08,6.97 6.57,11.91 13.13,9.95 z M 102.56,30.03 C 93.8,29.14 89.1,22.21 92.14,15.67 c 8.18,1.76 13.46,7.82 10.42,14.36 z m 16.78,37.16 c -8.76,-0.89 -13.46,-7.82 -10.42,-14.36 8.18,1.76 13.46,7.82 10.42,14.36 z m 0.74,-38.36 c -2.52,-6.94 1.73,-13.49 8.56,-14.08 1.56,6.88 -1.73,13.49 -8.56,14.08 z m 5.4,50.34 c -2.52,-6.94 1.73,-13.49 8.56,-14.08 1.56,6.88 -1.73,13.49 -8.56,14.08 z m 2.58,11.74 c -2.52,-6.94 1.73,-13.49 8.56,-14.07 1.56,6.88 -1.73,13.49 -8.56,14.07 z m -21.71,-4.54 c -5.54,-3.22 -5.51,-10.2 -0.38,-14.67 4.74,3.75 5.51,10.2 0.38,14.67 z m 5.43,22.2 c -2.52,-6.94 1.73,-13.49 8.56,-14.08 1.56,6.89 -1.73,13.49 -8.56,14.08 z m 20.7,13.39 c 2.94,-7.15 -2.57,-16.87 -11.96,-17.78 -2.57,8.45 3.41,17.34 11.96,17.78 z M 86.66,99.4 c -2.52,-6.94 1.73,-13.49 8.56,-14.07 1.56,6.88 -1.73,13.49 -8.56,14.07 z m 8.39,3.16 c -2.36,-5.72 2.06,-13.5 9.58,-14.24 2.06,6.77 -2.72,13.89 -9.58,14.24 z m 6.93,-51.43 c -6.76,-3.58 -8.74,-12.58 -3.9,-19.26 7.35,4.25 8.74,12.58 3.9,19.26 z m -21.34,0.42 c -9.81,3.27 -19.63,-2.18 -20.72,-10.9 8.72,-4.36 18.54,2.18 20.72,10.9 z M 74.06,64.7 c -9.81,3.27 -19.63,-2.18 -20.72,-10.9 8.72,-4.36 18.54,2.18 20.72,10.9 z m 19.49,18.88 c -7.16,2.69 -15.21,-1.79 -17,-9.84 8.05,-2.69 15.21,1.79 17,9.84 z M 85.44,92.3 C 75.63,95.57 65.81,90.12 64.72,81.4 73.44,77.04 83.26,83.58 85.44,92.3 Z M 69.1,96.31 C 61.37,101.39 52.13,98.13 49.42,90 57.37,86.11 66.39,88.18 69.1,96.31 Z m -6.89,7.51 c -3.56,6.24 -13.37,7.13 -18.72,1.78 3.57,-7.13 14.26,-8.02 18.72,-1.78 z m 59.6,-51.89 c -7.79,3.22 -15.59,-2.15 -16.46,-10.73 6.93,-4.3 14.72,2.15 16.46,10.73 z M 91.44,69.51 c -7.8,3.22 -15.59,-2.15 -16.46,-10.73 6.93,-4.29 14.72,2.15 16.46,10.73 z m -0.6,38.94 c -9.81,3.27 -19.63,-2.18 -20.72,-10.9 8.72,-4.36 18.54,2.18 20.72,10.9 z M 20.7,149.29 c -9.81,3.27 -19.63,-2.18 -20.72,-10.9 8.72,-4.36 18.54,2.18 20.72,10.9 z m 60.69,-16.8 c -2.91,-6.79 0.97,-13.57 7.76,-14.54 1.94,6.79 -0.97,13.57 -7.76,14.54 z m 72.74,-91.76 c 0,-7.32 6.41,-12.81 13.72,-10.98 0,6.41 -6.41,11.89 -13.72,10.98 z m -49.94,95.09 c 0,-7.32 6.41,-12.8 13.72,-10.98 0,6.41 -6.41,11.89 -13.72,10.98 z m -12.77,11.47 c -0.89,7.08 -8.85,13.28 -15.93,10.62 0,-7.96 7.96,-13.28 15.93,-10.62 z M 69.9,179.1 c -7.63,2.18 -16.35,-3.27 -16.35,-10.9 6.54,-2.18 15.26,3.27 16.35,10.9 z m 49.38,-32.89 c -3.05,-6.09 0,-13.7 6.85,-15.22 3.81,6.09 -0.76,12.94 -6.85,15.22 z M 39.74,104.9 c -6.67,2.5 -14.17,-1.67 -15.84,-9.17 7.5,-2.5 14.17,1.67 15.84,9.17 z m 0.6,26.97 c -6.67,2.5 -14.17,-1.67 -15.84,-9.17 7.5,-2.5 14.17,1.67 15.84,9.17 z m -4.69,6.18 c -5.58,6.5 -14.87,7.43 -20.45,0.93 4.65,-6.51 13.94,-7.44 20.45,-0.93 z m 13.53,-12.34 c -7.98,1.99 -15.94,-4.98 -15.94,-13.95 7.97,-1.99 15.94,4.98 15.94,13.95 z m -6.54,35.93 c -5.19,6.06 -13.84,5.19 -19.03,-0.87 5.19,-5.19 14.71,-5.19 19.03,0.87 z m -2.18,-18.12 c -0.96,7.67 -10.54,13.41 -19.17,9.58 1.92,-8.62 11.5,-13.41 19.17,-9.58 z m 12.8,-10.18 c -2.38,7.16 -11.32,9.05 -16.82,4.23 2.68,-6.4 10.87,-7.98 16.82,-4.23 z M 94.19,60.06 C 84.38,56.79 80.02,46.98 84.38,38.25 c 9.81,2.18 14.17,13.08 9.81,21.81 z M 54.63,162.75 c -9.81,-3.27 -14.17,-13.08 -9.81,-21.81 9.81,2.18 14.17,13.08 9.81,21.81 z M 32.89,108.46 c -4.78,6.49 -14.12,7.61 -19.72,2.99 4.93,-7.37 14.27,-8.5 19.72,-2.99 z m 52.14,34.76 c -4.78,6.49 -14.12,7.61 -19.72,2.99 4.93,-7.37 14.27,-8.5 19.72,-2.99 z M 76.84,71.56 c -3.56,6.24 -13.37,7.13 -18.72,1.78 3.57,-7.13 14.26,-8.02 18.72,-1.78 z m -8.79,56.34 c -3.56,6.24 -13.37,7.13 -18.71,1.78 3.56,-7.13 14.26,-8.02 18.71,-1.78 z M 34.15,91.33 c -8.89,2.96 -17.78,-1.98 -18.77,-9.88 7.91,-3.95 16.79,1.98 18.77,9.88 z m 33.56,31.17 c -8.89,2.96 -17.78,-1.98 -18.77,-9.88 7.9,-3.95 16.79,1.98 18.77,9.88 z m -15.26,64.24 c -9.81,-3.27 -14.17,-13.08 -9.81,-21.81 9.81,2.18 13.09,13.08 9.81,21.81 z m -11.99,-1.09 c -8.73,1.09 -17.45,-6.54 -16.35,-16.35 8.72,-2.18 17.44,5.45 16.35,16.35 z M 209.74,54.08 c -2.65,-7.52 1.82,-14.63 9,-15.26 1.63,7.46 -1.82,14.63 -9,15.26 z m -40.35,-5.59 c -2.65,-7.52 1.82,-14.63 9,-15.26 1.63,7.46 -1.82,14.62 -9,15.26 z m -22.78,27.57 c -2.65,-7.52 1.82,-14.63 9,-15.26 1.63,7.46 -1.82,14.63 -9,15.26 z m 12.88,4.5 c 6.04,-4.26 6.29,-12.06 1.02,-16.44 -5.2,4.76 -6.28,12.06 -1.02,16.44 z m 12.43,-49.42 c -2.94,-8.31 2.02,-16.16 9.98,-16.86 1.81,8.24 -2.02,16.16 -9.98,16.86 z m -14.98,26.97 c -2.94,-8.31 2.02,-16.16 9.98,-16.86 1.81,8.24 -2.02,16.16 -9.98,16.86 z m -12.49,2.22 c -2.52,-6.94 1.73,-13.49 8.56,-14.08 1.56,6.88 -1.73,13.49 -8.56,14.08 z m 22.98,-33.58 c 2.52,-6.94 -1.73,-13.49 -8.56,-14.08 -1.56,6.89 1.73,13.49 8.56,14.08 z m 4.8,44.35 c 2.52,-6.94 -1.73,-13.49 -8.56,-14.08 -1.56,6.88 1.73,13.49 8.56,14.08 z m -2.77,-52.53 c 7.63,-3.76 9.33,-12.62 4.13,-18.58 -6.78,4.49 -9.33,12.62 -4.13,18.58 z m 5.39,45.55 c 7.63,-3.76 9.33,-12.62 4.13,-18.58 -6.78,4.49 -9.33,12.62 -4.13,18.58 z M 125.6,34.05 c 6.9,-2.62 13.52,1.54 14.2,8.36 -6.86,1.65 -13.52,-1.54 -14.2,-8.36 z m 27.17,51.54 c 6.9,-2.62 13.52,1.54 14.2,8.36 -6.86,1.65 -13.51,-1.54 -14.2,-8.36 z m 64.26,-51.12 c 5.2,-7.14 2.71,-16.52 -4.7,-19.93 -4.1,7.46 -2.71,16.52 4.7,19.93 z m 16.33,45.18 c 6.64,-5.82 6.26,-15.52 -0.22,-20.47 -5.64,6.38 -6.26,15.52 0.22,20.47 z m -74.17,41.82 c 5.7,-4.69 5.39,-12.49 -0.19,-16.48 -4.85,5.13 -5.39,12.49 0.19,16.48 z m 8.6,1.83 c 6.99,-2.37 9.45,-9.78 5.64,-15.48 -6.35,3.09 -9.45,9.78 -5.64,15.48 z m 7.23,18.58 c 2.52,-6.94 -1.73,-13.49 -8.56,-14.08 -1.56,6.89 1.73,13.49 8.56,14.08 z M 221.8,55.15 c 1.31,-6.34 9.7,-10.51 16.66,-6.72 -2.18,7.08 -10.51,10.44 -16.66,6.72 z m -63.53,47.55 c 1.31,-6.34 9.7,-10.5 16.66,-6.72 -2.18,7.08 -10.5,10.44 -16.66,6.72 z m 6.57,-20.22 c 7.24,-1.43 13.07,3.78 12.6,10.61 -7.04,0.48 -13.07,-3.78 -12.6,-10.61 z m 43.83,-13.91 c -3.12,-7.09 2.14,-13.8 10.58,-14.39 1.92,7.04 -2.14,13.8 -10.58,14.39 z m 91.29,36.98 c -4.82,-5.51 -13.26,-5.41 -17.56,0.78 4.22,4.81 12.65,4.72 17.56,-0.78 z M 259.2,72.59 c -4.82,-5.5 -13.25,-5.41 -17.55,0.78 4.22,4.82 12.65,4.73 17.55,-0.78 z M 247.61,39.43 c -4.82,-5.5 -13.26,-5.41 -17.56,0.78 4.22,4.82 12.65,4.72 17.56,-0.78 z m -35.96,38.36 c -4.82,-5.51 -13.26,-5.41 -17.55,0.78 4.22,4.81 12.65,4.72 17.55,-0.78 z m 1.76,35.7 c 2.94,-6.7 -0.71,-14.3 -8.14,-15.57 -2.58,5.86 1.08,13.46 8.14,15.57 z m -17.1,-44.15 c -2.96,-7.34 2.02,-14.28 10.03,-14.9 1.82,7.29 -2.02,14.28 -10.03,14.9 z m -3.04,-3.52 c 2.59,-8.12 -1.78,-15.79 -8.8,-16.48 -1.6,8.06 1.78,15.79 8.8,16.48 z m -4.5,12.96 c 2.52,-6.94 -1.73,-13.49 -8.56,-14.08 -1.56,6.88 1.73,13.49 8.56,14.08 z m -3.58,12.14 c 2.52,-6.94 -1.73,-13.49 -8.56,-14.07 -1.56,6.88 1.73,13.49 8.56,14.07 z m 18.33,5.28 c 2.52,-6.94 -1.73,-13.49 -8.56,-14.08 -1.56,6.88 1.73,13.49 8.56,14.08 z m -2.06,12.39 c 2.52,-6.94 -1.73,-13.49 -8.56,-14.08 -1.56,6.89 1.73,13.49 8.56,14.08 z m -20.7,13.39 c -2.94,-7.15 2.57,-16.87 11.96,-17.78 2.58,8.45 -3.4,17.34 -11.96,17.78 z m 23.88,-69.6 c 2.52,-6.94 -1.73,-13.49 -8.56,-14.08 -1.56,6.89 1.73,13.49 8.56,14.08 z m 12.78,46.75 c 2.52,-6.94 -1.73,-13.49 -8.56,-14.08 -1.56,6.89 1.73,13.49 8.56,14.08 z m 6.39,-55.19 c 6.58,-3.89 8.15,-12.96 3.01,-19.41 -7.14,4.58 -8.15,12.97 -3.01,19.41 z m -7.79,40.16 c 6.58,-3.89 8.15,-12.97 3.01,-19.42 -7.14,4.58 -8.15,12.97 -3.01,19.42 z m 5.45,11.3 c 7.19,-2.62 10.39,-11.25 6.52,-18.54 -7.86,3.2 -10.39,11.26 -6.52,18.54 z m 6.33,-3.08 c 9.81,3.27 19.63,-2.18 20.72,-10.9 -8.72,-4.36 -18.54,2.18 -20.72,10.9 z m 21.41,-26.94 c 7,4.35 15.36,1.56 17.81,-5.41 -7.19,-3.33 -15.36,-1.56 -17.81,5.41 z m 14.2,42.06 c 10.02,0.35 15.75,-8.27 12.65,-17.74 -9.41,0.93 -15.75,8.27 -12.65,17.74 z m -7.28,-24.69 c 5.78,4.28 15.11,1.14 17.85,-5.91 -6.13,-5.09 -16.28,-1.59 -17.85,5.91 z m -11.98,20.38 c 5.78,4.27 15.11,1.14 17.85,-5.91 -6.14,-5.09 -16.28,-1.59 -17.85,5.91 z M 183.77,47.35 c 9.97,-2.75 15.08,-12.75 11.12,-20.6 -9.68,1.24 -14.17,12.15 -11.12,20.6 z m 38.63,61.11 c 9.81,3.27 19.63,-2.18 20.72,-10.9 -8.72,-4.36 -18.54,2.18 -20.72,10.9 z m 27.65,-51.4 c 9.04,-0.24 15.47,-7.66 13.76,-15.15 -8.47,-0.98 -14.57,7.33 -13.76,15.15 z m -17.22,60.13 c 8.57,2.86 17.15,-1.91 18.11,-9.53 -7.63,-3.81 -16.2,1.91 -18.11,9.53 z m 8.35,4.56 c -5.22,-5.22 -12.96,-4.13 -16.37,1.82 5.59,4.31 12.96,4.13 16.37,-1.82 z m -29.56,6.6 c 0,-5.31 -4.65,-9.28 -9.95,-7.96 0,4.65 4.64,8.62 9.95,7.96 z m 10.09,47.08 c -4,7.28 1.84,16.54 10.17,18.35 2.47,-7.46 -1.85,-16.54 -10.17,-18.35 z m 72.4,-19.81 c 1.02,8.2 10.24,15.37 18.44,12.31 v -0.64 c -0.41,-8.87 -9.43,-14.67 -18.44,-11.67 z M 215,149.63 c 1.03,8.2 10.26,15.38 18.46,12.3 0,-9.23 -9.23,-15.38 -18.46,-12.3 z m 28.35,29.49 c 7.63,2.18 16.35,-3.27 16.35,-10.9 -6.54,-2.18 -15.26,3.27 -16.35,10.9 z m -48.5,-32.19 c 3.28,-6.56 0,-14.74 -7.37,-16.39 -4.09,6.56 0.82,13.93 7.37,16.39 z m 78.07,-15.32 c 9.29,3.44 19.74,-2.3 22.06,-12.6 -10.45,-3.44 -19.74,2.29 -22.06,12.6 z m 5.75,5.22 c 6.05,7.05 16.11,8.06 22.16,1.01 -5.04,-7.05 -15.11,-8.06 -22.16,-1.01 z m -14.59,-11.14 c 8.72,2.18 17.44,-5.45 17.44,-15.26 -8.72,-2.19 -17.44,5.45 -17.44,15.26 z m 6.54,34.89 c 6.54,7.63 17.44,6.54 23.99,-1.09 -6.54,-6.54 -18.54,-6.54 -23.99,1.09 z m 2.18,-17.05 c 0.96,7.67 10.54,13.41 19.17,9.58 -1.92,-8.62 -11.5,-13.41 -19.17,-9.58 z m 21.37,-30.56 c 2.37,7.16 11.31,9.05 16.82,4.23 -2.69,-6.4 -10.87,-7.98 -16.82,-4.23 z m -34.16,20.38 c 2.37,7.16 11.31,9.05 16.82,4.23 -2.69,-6.4 -10.87,-7.98 -16.82,-4.23 z m -1.38,29.41 c 9.81,-3.27 14.17,-13.08 9.81,-21.81 -9.81,2.18 -14.17,13.08 -9.81,21.81 z m -31.62,-19.63 c 4.36,8.72 15.26,11.99 22.9,7.63 -4.36,-9.81 -15.26,-13.08 -22.9,-7.63 z m 66.13,3.66 c 3.57,6.24 13.37,7.13 18.72,1.78 -3.57,-7.13 -14.26,-8.02 -18.72,-1.78 z M 241,128.21 c 3.56,6.24 13.37,7.13 18.72,1.78 -3.57,-7.13 -14.26,-8.02 -18.72,-1.78 z m 4.54,-5.7 c 8.89,2.96 17.78,-1.98 18.76,-9.88 -7.9,-3.95 -16.79,1.98 -18.76,9.88 z m -7.17,60.43 c -4.39,8.09 0.41,18.53 9,20.06 4.39,-8.09 -0.41,-18.53 -9,-20.06 z m 14.15,7.86 c -0.89,8.81 6.77,14.82 14.17,14.28 1.17,-7.96 -5.91,-15.1 -14.17,-14.28 z m 15.91,1.31 c 1.97,8.87 10.85,13.81 18.74,9.86 -0.98,-7.89 -9.86,-12.82 -18.74,-9.86 z m -7.63,-5.36 c 9.81,-3.27 14.17,-13.08 9.81,-21.81 -9.81,2.18 -13.08,13.08 -9.81,21.81 z m 11.99,-1.09 c 8.72,1.09 17.44,-6.54 16.35,-16.35 -8.72,-2.18 -17.44,5.45 -16.35,16.35 z m 6.54,2.93 c 4.09,6.53 13.09,5.6 18,-0.93 -5.73,-5.6 -13.91,-5.6 -18,0.93 z"
           id="path1120" /></g></g><flowRoot
       transform="translate(-815.6338,-415.57023)"
       style="font-style:normal;font-weight:normal;font-size:40px;line-height:1.25;font-family:sans-serif;letter-spacing:0px;word-spacing:0px;fill:#ffffff;fill-opacity:1;stroke:none"
       id="flowRoot1148"
       xml:space="preserve"><flowRegion
         style="fill:#ffffff"
         id="flowRegion1150"><rect
           style="fill:#ffffff"
           y="-30.306692"
           x="122.11075"
           height="133.21173"
           width="506.37534"
           id="rect1152" /></flowRegion><flowPara
         style="font-weight:bold;font-size:106.66666412px;fill:#ffffff"
         id="flowPara1154">LA<flowSpan
   id="flowSpan1156"
   style="fill:#000000">Z</flowSpan>AR</flowPara></flowRoot><flowRoot
       style="font-style:normal;font-weight:normal;font-size:40px;line-height:1.25;font-family:sans-serif;letter-spacing:0px;word-spacing:0px;fill:#000000;fill-opacity:1;stroke:none"
       id="flowRoot1158"
       xml:space="preserve"><flowRegion
         id="flowRegion1160"><rect
           y="-687.13983"
           x="-223.41101"
           height="1399.6398"
           width="1123.0933"
           id="rect1162" /></flowRegion><flowPara
         id="flowPara1164" /></flowRoot></g></svg>