<svg height='100px' width='100px'  fill="#FFF" xmlns="http://www.w3.org/2000/svg" viewBox="0 0 64 64" x="0px" y="0px"><path d="M32,36a4,4,0,1,1,4-4A4,4,0,0,1,32,36Zm0-6a2,2,0,1,0,2,2A2,2,0,0,0,32,30ZM46.34,60.12l-5.52-2.36A22.42,22.42,0,0,0,34,56.1V48a13,13,0,0,0,11.24-6.5,1,1,0,0,0-.36-1.37,1,1,0,0,0-1.37.37A11,11,0,0,1,34,46V44a8,8,0,0,0,8-8V12a10,10,0,0,0-20,0V36a8,8,0,0,0,8,8v2a11,11,0,0,1-9.51-5.5,1,1,0,0,0-1.37-.37,1,1,0,0,0-.36,1.37A13,13,0,0,0,30,48v8.1a22.42,22.42,0,0,0-6.82,1.66l-5.52,2.36c-1.14.49-.71,1.88.59,1.88h27.5C47.05,62,47.48,60.61,46.34,60.12ZM24,22h4a1,1,0,0,0,0-2H24V18h4a1,1,0,0,0,0-2H24V14h4a1,1,0,0,0,0-2H24a8,8,0,0,1,16,0H36a1,1,0,0,0,0,2h4v2H36a1,1,0,0,0,0,2h4v2H36a1,1,0,0,0,0,2h4v2H24Zm0,14V26H40V36a6,6,0,0,1-6,6H30A6,6,0,0,1,24,36ZM23,60l.92-.4A21,21,0,0,1,40,59.6L41,60Z"></path></svg>