<?xml version="1.0" encoding="UTF-8" standalone="no"?>
<svg
   version="1.1"
   x="0px"
   y="0px"
   viewBox="0 0 100 100"
   enable-background="new 0 0 100 100"
   xml:space="preserve"
   alt="ply post"
   title="Create a ply for this post"
   id="svg4"
   sodipodi:docname="ply.svg"
   inkscape:version="0.92.5 (2060ec1f9f, 2020-04-08)"><metadata
   id="metadata10"><rdf:RDF><cc:Work
       rdf:about=""><dc:format>image/svg+xml</dc:format><dc:type
         rdf:resource="http://purl.org/dc/dcmitype/StillImage" /></cc:Work></rdf:RDF></metadata><defs
   id="defs8" /><sodipodi:namedview
   pagecolor="#ffffff"
   bordercolor="#666666"
   borderopacity="1"
   objecttolerance="10"
   gridtolerance="10"
   guidetolerance="10"
   inkscape:pageopacity="0"
   inkscape:pageshadow="2"
   inkscape:window-width="1005"
   inkscape:window-height="531"
   id="namedview6"
   showgrid="false" />
	<path
   d="m 70.026121,74.07388 c 1.673,0.155 3.156,-1.076 3.311,-2.749 l 0.112,-1.212 c 0.155,-1.674 -1.076,-3.156 -2.749,-3.311 l -1.206,-0.112 c -0.041,-0.004 -0.08,0.003 -0.121,0.001 -14.1,-1.628 -24.414,-14.109 -23.314,-28.285 l 5.987,5.708 c 1.182,1.171 3.091,1.163 4.263,-0.02 l 0.845,-0.853 c 1.172,-1.182 1.163,-3.09 -0.02,-4.262 l -12.669,-12.078 -0.116,-0.115 c -0.591,-0.586 -1.365,-0.877 -2.136,-0.873 -0.773,0.003 -1.544,0.3 -2.131,0.892 l -0.117,0.118 -12.554,12.192 c -1.172,1.182 -1.163,3.091 0.019,4.262 l 0.852,0.845 c 1.183,1.172 3.091,1.163 4.263,-0.019 l 6.166,-5.988 c -1.243,18.062 12.062,33.916 30.13,35.766 0.002,-0.005 0.004,-0.011 0.006,-0.017 z"
   id="path2"
   inkscape:connector-curvature="0"
   style="clip-rule:evenodd;fill-rule:evenodd" />
</svg>