<?xml version="1.0" encoding="UTF-8"?>
<svg width="1200pt" height="1200pt" version="1.1" viewBox="0 0 1200 1200" xmlns="http://www.w3.org/2000/svg">
 <path d="m418.07 751.34c-1.1719 12.645 8.1328 23.852 20.773 25.023l9.1602 0.84766c12.652 1.1719 23.852-8.1328 25.023-20.773l0.84766-9.1133c0.03125-0.30859-0.023438-0.60547-0.007813-0.91406 12.305-106.55 106.62-184.5 213.75-176.19l-43.137 45.246c-8.8477 8.9336-8.7891 23.359 0.15234 32.215l6.4453 6.3867c8.9336 8.8555 23.352 8.7891 32.207-0.15234l91.277-95.746 0.86719-0.875c4.4297-4.4648 6.6289-10.316 6.5977-16.141-0.023438-5.8398-2.2656-11.668-6.7422-16.105l-0.89062-0.88281-92.137-94.871c-8.9336-8.8555-23.359-8.7891-32.207 0.14453l-6.3867 6.4375c-8.8555 8.9414-8.7891 23.359 0.14453 32.215l45.254 46.598c-136.5-9.3945-256.31 91.152-270.29 227.7 0.039062 0.015625 0.082031 0.03125 0.12891 0.046875z" fill-rule="evenodd"/>
</svg>
