<svg height='100px' width='100px'  fill="#1A1A1A" xmlns:dc="http://purl.org/dc/elements/1.1/" xmlns:cc="http://creativecommons.org/ns#" xmlns:rdf="http://www.w3.org/1999/02/22-rdf-syntax-ns#" xmlns:svg="http://www.w3.org/2000/svg" xmlns="http://www.w3.org/2000/svg" version="1.1" viewBox="0 0 25 25" x="0px" y="0px"><g transform="translate(0,-1027.3622)"><path d="m 3.1099643,1032.0725 c 0.078515,0.01 0.062162,0.9273 0.089628,2.4692 0.026292,1.4795 0.09841,3.7586 0.5462167,6.1156 0,0 0,0 0,0 0.1650079,0.8694 0.3871628,1.7742 0.7011414,2.6675 0.035598,0.1012 0.0721,0.2017 0.109668,0.3014 0.3106808,0.8253 0.6838302,1.585 1.1245169,2.2702 0.859382,1.3392 1.9673015,2.324 2.9970402,3.0056 0,0 0,0 0,0 0.9809222,0.6503 2.0433145,1.1365 2.6354285,1.4085 0.654385,0.3005 1.023921,0.4673 1.007097,0.5144 -0.01409,0.04 -0.41284,-0.044 -1.101839,-0.2747 -0.642684,-0.2148 -1.7171193,-0.6191 -2.7853388,-1.2603 0,0 0,0 0,0 -1.1056968,-0.6647 -2.3001995,-1.6682 -3.2349613,-3.0786 -0.4751195,-0.7183 -0.8745068,-1.5141 -1.1993095,-2.3751 -0.039212,-0.1039 -0.07734,-0.2086 -0.114321,-0.314 -0.3267904,-0.9306 -0.5504361,-1.8662 -0.7075835,-2.7611 0,0 0,0 0,0 -0.427622,-2.4378 -0.4192194,-4.721 -0.3472368,-6.2249 0.074269,-1.5523 0.2196522,-2.4672 0.279844,-2.4637 z" style="" fill="#1A1A1A" fill-rule="evenodd" stroke="none"></path><path d="m 3.3857425,1031.9071 c 0.00542,-0.062 0.473945,-0.046 1.2887931,-0.09 0.7722115,-0.041 2.0119529,-0.1444 3.2619492,-0.5977 0.686369,-0.2473 1.3963381,-0.6031 2.0826522,-1.0895 0.76099,-0.5025 1.485406,-1.1268 2.165423,-1.8588 0.03433,0.023 0.06867,0.044 0.10301,0.067 0.58438,0.3827 1.314534,0.9024 1.841036,1.2562 0.627008,0.4775 1.217452,0.8818 1.833555,1.2053 0.790823,0.4162 1.572901,0.6696 2.277675,0.8159 0,0 0,0 0,0 1.895806,0.3956 3.109446,0.1286 3.126151,0.2911 5.97e-4,0.01 -1.194963,0.4377 -3.202525,0.1376 0,0 0,0 0,0 -0.749524,-0.1128 -1.589436,-0.3465 -2.444427,-0.7656 -0.662832,-0.3256 -1.293663,-0.7369 -1.940955,-1.2185 -0.755632,-0.6427 -0.692305,-0.631 -1.462267,-1.2894 -0.02647,-0.023 -0.05304,-0.045 -0.0796,-0.068 -0.567711,0.7507 -1.19921,1.3876 -1.891379,1.8954 -0.7415651,0.506 -1.5083283,0.8636 -2.2463961,1.099 -1.3555985,0.4294 -2.6280108,0.4544 -3.4239846,0.4129 -0.8323671,-0.043 -1.2925065,-0.1597 -1.2887389,-0.2037 z" style="" fill="#1A1A1A" fill-rule="evenodd" stroke="none"></path><path d="m 21.510901,1032.0856 c 0.06017,0 0.205558,0.9113 0.279853,2.4636 0.07201,1.5039 0.08041,3.7872 -0.347236,6.2249 0,0 0,0 0,0 -0.157157,0.8949 -0.380803,1.8305 -0.707584,2.7611 -0.03704,0.1055 -0.07508,0.2101 -0.11433,0.3141 -0.324794,0.8609 -0.724181,1.6567 -1.199291,2.375 -0.934771,1.4104 -2.129274,2.4139 -3.23498,3.0787 0,0 0,0 0,0 -1.06821,0.6411 -2.142636,1.0455 -2.78533,1.2603 -0.689007,0.2303 -1.087717,0.3142 -1.101838,0.2746 -0.01681,-0.047 0.352712,-0.2139 1.007087,-0.5144 0.592124,-0.2719 1.654516,-0.7582 2.635438,-1.4085 0,0 0,0 0,0 1.029739,-0.6816 2.137658,-1.6664 2.997049,-3.0055 0.440669,-0.6853 0.813818,-1.445 1.124508,-2.2703 0.03759,-0.1 0.07409,-0.2002 0.109668,-0.3014 0.313979,-0.8933 0.536134,-1.7981 0.701141,-2.6674 0,0 0,-10e-5 0,-10e-5 0.447807,-2.3569 0.51988,-4.6361 0.546217,-6.1155 0.02747,-1.5419 0.01111,-2.4646 0.08963,-2.4692 z" style="" fill="#1A1A1A" fill-rule="evenodd" stroke="none"></path><path d="m 4.0475904,1040.2904 c 5.963e-4,-0.1644 3.6702993,-0.2855 8.1913886,-0.2703 4.521098,0.015 8.189943,0.1611 8.189391,0.3255 -5.96e-4,0.1645 -3.670299,0.2856 -8.191397,0.2704 -4.521089,-0.015 -8.1899428,-0.161 -8.1893826,-0.3256 z" style="" fill="#1A1A1A" fill-rule="evenodd" stroke="none"></path><path d="m 12.265551,1050.1079 c -0.164457,6e-4 -0.310274,-4.5579 -0.325498,-10.1752 -0.01527,-5.617 0.105891,-10.1762 0.270348,-10.1766 0.164457,-7e-4 0.310283,4.558 0.325507,10.1751 0.01518,5.6171 -0.1059,10.1762 -0.270357,10.1767 z" style="" fill="#1A1A1A" fill-rule="evenodd" stroke="none"></path><path d="m 19.049516,1040.0147 c -0.164457,0 -0.297933,-1.3096 -0.297933,-2.9231 0,-1.6136 0.133476,-2.9232 0.297933,-2.9232 0.164456,0 0.297932,1.3096 0.297932,2.9232 0,1.6135 -0.133476,2.9231 -0.297932,2.9231 z" style="" fill="#1A1A1A" fill-rule="evenodd" stroke="none"></path><path d="m 12.651639,1031.7967 c 0.05249,-0.065 0.382257,0.1198 0.889469,0.451 0.460428,0.3005 1.226469,0.8346 1.981848,1.1924 0,0 0,0 0,0 0.04951,0.024 0.09954,0.047 0.150109,0.07 0.48991,0.2205 0.957918,0.3674 1.399617,0.4585 1.099851,0.2291 1.899168,0.1105 1.921674,0.2554 0.01229,0.08 -0.763808,0.4226 -2.0072,0.2728 -0.493307,-0.061 -1.022493,-0.2015 -1.558924,-0.4433 -0.05548,-0.025 -0.110174,-0.051 -0.164141,-0.077 0,0 0,0 0,0 -0.852615,-0.4194 -1.550531,-1.0024 -1.978189,-1.4043 -0.446089,-0.4191 -0.681914,-0.7162 -0.634263,-0.775 z" style="" fill="#1A1A1A" fill-rule="evenodd" stroke="none"></path><path d="m 11.769172,1048.1223 c -0.01997,0.062 -1.239841,-0.052 -2.7421061,-1.0301 -0.5789237,-0.3777 -1.1659518,-0.8776 -1.6871955,-1.513 -0.063065,-0.077 -0.1241241,-0.1545 -0.1832317,-0.2327 -0.5419159,-0.719 -0.9094365,-1.4748 -1.1551278,-2.1448 -0.5156599,-1.4061 -0.5378772,-2.3988 -0.4647653,-2.4149 0.1350205,-0.03 0.3466857,0.9212 0.9351775,2.2231 0.279853,0.6189 0.6524784,1.3164 1.1584256,1.9766 0.055114,0.072 0.1118274,0.1437 0.1701489,0.2149 0.4819681,0.5876 1.0121203,1.0658 1.5324423,1.4488 1.3444401,0.9915 2.4875781,1.3144 2.4362321,1.4721 z" style="" fill="#1A1A1A" fill-rule="evenodd" stroke="none"></path></g></svg>